<svg id="svg" version="1.1" xmlns="http://www.w3.org/2000/svg" xmlns:xlink="http://www.w3.org/1999/xlink" width="400" height="235.97122302158274" viewBox="0, 0, 400,235.97122302158274"><g id="svgg"><path id="path0" d="M172.979 37.068 C 167.864 38.477,164.913 40.339,156.356 47.554 C 154.661 48.983,152.743 50.573,152.094 51.087 C 151.445 51.600,150.383 52.515,149.735 53.119 C 149.086 53.723,147.171 55.372,145.480 56.784 C 143.789 58.196,141.877 59.795,141.232 60.338 C 122.862 75.800,119.915 77.750,114.926 77.738 C 105.743 77.716,101.811 66.066,109.617 62.006 C 114.552 59.439,120.751 65.360,117.354 69.397 C 114.795 72.438,109.889 70.303,111.622 66.903 C 112.761 64.670,111.515 63.081,109.774 64.546 C 106.249 67.512,109.249 73.695,114.218 73.707 C 120.713 73.723,123.589 64.965,118.439 60.850 C 112.550 56.144,105.277 58.821,102.912 66.565 C 100.816 73.429,106.973 80.535,114.988 80.501 C 120.672 80.477,124.012 78.560,135.811 68.547 C 137.499 67.116,139.410 65.523,140.059 65.007 C 140.707 64.492,142.686 62.850,144.455 61.357 C 146.224 59.864,148.455 57.993,149.411 57.198 C 150.368 56.403,151.894 55.130,152.802 54.368 C 168.290 41.379,169.877 40.344,175.732 39.408 C 180.074 38.715,185.906 41.253,189.167 45.257 C 195.376 52.880,190.513 65.133,181.278 65.133 C 173.051 65.133,168.839 56.465,174.522 51.227 C 178.797 47.286,186.168 52.314,182.987 57.002 C 181.279 59.518,182.770 61.373,184.791 59.248 C 189.071 54.749,185.155 47.155,178.525 47.095 C 169.757 47.015,165.905 57.992,172.392 64.569 C 179.907 72.188,193.494 66.701,194.600 55.600 L 194.763 53.972 195.180 54.785 C 195.409 55.232,195.769 56.265,195.981 57.081 C 198.442 66.579,208.152 70.903,216.047 66.016 C 226.137 59.771,220.283 44.129,209.130 47.534 C 206.584 48.312,204.694 50.363,203.989 53.113 C 203.072 56.695,205.884 61.512,207.784 59.612 C 208.533 58.863,208.530 58.506,207.763 57.595 C 203.792 52.876,211.214 46.997,215.803 51.227 C 219.834 54.943,218.837 61.810,213.938 64.070 C 202.878 69.174,193.540 55.419,201.199 45.307 C 204.181 41.369,210.208 38.739,214.691 39.419 C 220.040 40.230,222.248 41.561,232.418 50.102 C 234.706 52.023,238.224 54.943,240.236 56.590 C 242.248 58.237,244.432 60.063,245.089 60.647 C 246.395 61.810,256.568 70.322,257.776 71.262 C 258.188 71.583,259.959 72.970,261.711 74.344 C 270.210 81.008,275.517 82.249,281.772 79.035 C 291.312 74.133,288.446 58.643,277.999 58.643 C 269.376 58.643,265.760 69.868,273.322 73.161 C 279.127 75.689,284.862 68.997,280.655 64.605 C 279.112 62.995,277.598 64.549,278.702 66.610 C 280.344 69.673,276.752 72.239,273.808 70.106 C 270.000 67.348,272.859 61.463,277.994 61.490 C 285.212 61.528,287.398 71.716,281.120 76.066 C 275.628 79.872,270.425 78.067,258.643 68.268 C 252.568 63.215,246.410 58.047,243.540 55.591 C 241.788 54.092,239.611 52.259,238.702 51.519 C 237.794 50.778,235.609 48.946,233.848 47.446 C 223.889 38.968,219.297 36.578,212.966 36.578 C 205.216 36.578,197.666 42.369,195.890 49.676 C 195.733 50.324,195.412 51.219,195.179 51.663 L 194.754 52.471 194.590 50.955 C 193.585 41.672,182.387 34.476,172.979 37.068 M47.869 60.286 C 39.107 62.701,37.961 75.387,46.107 79.806 L 47.552 80.590 70.442 80.590 L 93.333 80.590 94.943 79.777 C 101.846 76.293,102.288 65.130,95.673 61.345 C 86.146 55.894,76.788 67.786,85.473 74.308 C 85.693 74.473,86.541 74.764,87.358 74.954 C 93.030 76.278,97.176 70.048,93.383 65.900 C 91.943 64.326,90.511 66.138,91.563 68.201 C 93.038 71.091,89.681 73.485,86.789 71.605 C 82.918 69.086,85.270 63.232,90.317 62.827 C 97.667 62.237,100.452 73.695,93.821 77.244 L 92.861 77.758 70.560 77.758 C 45.625 77.758,47.456 77.882,45.641 76.068 C 40.979 71.406,44.453 62.366,50.729 62.831 C 55.059 63.152,57.506 67.128,55.435 70.479 C 53.339 73.870,47.818 71.912,49.526 68.383 C 50.753 65.848,48.976 64.203,47.355 66.374 C 42.768 72.517,52.581 78.699,57.354 72.673 C 62.175 66.586,55.699 58.128,47.869 60.286 M297.463 60.201 C 288.461 62.233,287.166 75.742,295.575 79.891 L 296.991 80.590 319.882 80.590 L 342.773 80.590 344.229 79.800 C 353.447 74.800,350.327 59.947,340.059 59.947 C 330.725 59.947,327.862 73.062,336.771 75.008 C 342.299 76.215,346.581 69.549,342.637 65.875 C 341.207 64.542,339.543 66.400,340.767 67.965 C 342.693 70.427,338.983 73.482,336.175 71.746 C 332.008 69.171,334.792 62.774,340.080 62.773 C 347.391 62.772,349.483 74.675,342.655 77.425 C 341.965 77.703,338.186 77.758,319.646 77.758 L 297.463 77.758 296.519 77.248 C 290.303 73.887,292.291 63.326,299.234 62.828 C 304.639 62.440,307.739 68.564,303.640 71.533 C 300.944 73.486,296.962 70.593,298.872 68.069 C 300.231 66.271,298.284 64.558,296.741 66.193 C 292.381 70.817,299.445 77.624,305.015 74.166 C 312.464 69.541,306.331 58.200,297.463 60.201 M29.882 83.890 C 29.318 84.317,29.310 85.414,29.868 85.822 C 30.698 86.429,359.983 86.271,360.590 85.664 C 361.202 85.051,361.185 84.682,360.516 84.053 L 359.970 83.540 195.147 83.547 C 53.147 83.554,30.263 83.601,29.882 83.890 M29.735 149.381 C 28.998 150.117,29.177 150.854,30.223 151.395 C 31.236 151.919,359.089 151.919,360.101 151.395 C 361.147 150.854,361.326 150.117,360.590 149.381 C 359.843 148.634,30.481 148.634,29.735 149.381 M47.722 154.587 C 39.287 156.249,38.103 169.733,46.015 174.020 C 54.942 178.857,64.232 166.654,55.894 161.042 C 50.265 157.253,42.876 164.346,47.566 169.036 C 49.244 170.713,50.710 169.107,49.543 166.869 C 47.903 163.723,52.302 161.202,54.885 163.808 C 57.800 166.750,55.457 171.802,50.990 172.207 C 43.418 172.894,40.508 161.482,47.316 157.797 L 48.260 157.286 70.560 157.286 L 92.861 157.286 93.805 157.796 C 99.342 160.790,98.660 170.005,92.759 171.935 C 87.985 173.496,83.325 169.078,85.417 164.976 C 86.298 163.251,87.346 162.687,89.440 162.816 C 91.436 162.938,92.654 165.315,91.563 166.962 C 90.222 168.988,92.116 170.682,93.646 168.824 C 96.198 165.729,94.372 161.082,90.224 160.118 C 83.450 158.543,79.202 167.662,84.430 172.552 C 90.940 178.642,100.177 173.909,100.177 164.484 C 100.177 159.004,97.621 155.428,93.106 154.594 C 91.431 154.284,49.291 154.278,47.722 154.587 M111.268 154.780 C 105.206 156.538,101.288 163.150,102.988 168.752 C 104.527 173.822,107.481 176.165,112.330 176.165 C 116.581 176.165,118.662 175.038,120.234 171.882 C 123.407 165.512,117.176 158.943,111.032 162.183 C 108.094 163.732,107.375 168.366,109.742 170.508 C 111.315 171.932,112.680 170.215,111.622 168.142 C 109.772 164.512,115.376 162.310,117.543 165.815 C 121.057 171.501,112.445 176.493,107.695 171.524 C 102.319 165.900,107.175 156.888,115.398 157.227 C 119.947 157.415,120.186 157.565,134.716 169.322 C 136.047 170.398,144.271 177.291,144.560 177.571 C 144.699 177.706,145.223 178.136,145.725 178.525 C 148.618 180.772,153.769 185.010,157.994 188.619 C 164.168 193.892,167.841 196.388,170.855 197.359 C 174.174 198.428,174.510 198.490,176.954 198.495 C 185.549 198.511,193.273 192.282,194.548 184.307 L 194.830 182.537 195.206 183.245 C 195.412 183.634,195.755 184.643,195.969 185.487 C 196.854 188.982,198.711 191.698,202.293 194.736 C 205.792 197.704,213.200 199.411,216.992 198.124 C 217.585 197.923,218.247 197.758,218.463 197.758 C 219.802 197.758,225.352 194.482,228.437 191.871 C 229.540 190.937,231.434 189.358,232.645 188.361 C 233.856 187.364,235.417 186.071,236.112 185.487 C 236.808 184.903,238.153 183.788,239.100 183.009 C 240.048 182.230,241.037 181.395,241.297 181.154 C 241.557 180.912,242.354 180.276,243.068 179.739 C 243.782 179.203,244.419 178.710,244.484 178.644 C 244.646 178.481,248.218 175.479,251.947 172.373 C 256.813 168.321,260.738 165.131,262.560 163.749 C 263.481 163.050,265.164 161.747,266.300 160.854 C 272.317 156.122,278.078 155.814,282.274 159.998 C 287.299 165.009,284.518 173.588,277.876 173.562 C 272.825 173.542,270.128 167.918,273.720 164.896 C 276.600 162.473,280.292 165.239,278.660 168.598 C 277.883 170.197,279.077 171.817,280.291 170.810 C 282.799 168.728,282.338 163.622,279.519 162.263 C 273.142 159.189,267.090 165.120,269.945 171.645 C 272.190 176.775,280.234 178.004,284.387 173.851 C 288.850 169.388,288.744 162.230,284.150 157.794 C 279.279 153.091,272.603 153.073,265.744 157.744 C 263.261 159.435,256.505 164.718,252.256 168.292 C 245.702 173.805,234.212 183.387,233.063 184.298 C 232.346 184.866,230.065 186.795,227.514 188.990 C 220.086 195.383,214.287 197.087,207.906 194.752 C 206.158 194.113,201.534 190.815,201.534 190.208 C 201.534 190.096,201.384 189.855,201.201 189.672 C 199.428 187.898,198.584 185.294,198.584 181.593 L 198.584 178.525 199.570 176.519 C 201.869 171.841,205.035 169.773,209.627 169.951 C 217.159 170.242,221.124 178.093,216.353 183.269 C 211.796 188.214,204.112 183.013,207.702 177.413 C 209.185 175.101,206.908 173.879,205.238 176.092 C 200.715 182.085,207.718 190.351,214.981 187.591 C 223.334 184.416,223.308 172.425,214.940 168.406 C 207.006 164.597,198.663 168.821,195.886 178.053 C 195.039 180.870,194.789 181.115,194.596 179.323 C 193.397 168.227,180.123 162.890,172.472 170.429 C 163.963 178.813,173.435 192.957,183.245 186.516 C 186.747 184.216,187.585 177.997,184.740 175.423 C 182.951 173.803,181.479 175.765,182.916 177.854 C 185.485 181.588,181.129 186.428,176.564 184.912 C 169.188 182.462,171.164 171.399,179.248 169.885 C 190.328 167.812,196.370 182.884,187.788 191.192 C 180.749 198.006,172.338 197.229,162.698 188.875 C 161.928 188.208,160.661 187.132,159.882 186.484 C 159.103 185.837,157.245 184.276,155.752 183.016 C 154.260 181.756,151.021 179.066,148.555 177.039 C 146.088 175.012,142.425 171.961,140.413 170.259 C 129.472 161.003,123.321 156.430,120.236 155.260 C 117.631 154.272,113.739 154.064,111.268 154.780 M296.873 154.660 C 294.587 155.173,292.386 156.858,291.404 158.845 C 290.161 161.362,290.147 161.424,290.148 164.720 L 290.149 167.906 291.066 169.622 C 294.851 176.713,304.085 177.086,307.500 170.287 C 310.561 164.193,304.304 157.676,298.372 160.779 C 295.504 162.279,294.629 166.611,296.741 168.851 C 298.414 170.625,300.213 169.031,298.863 166.970 C 296.852 163.901,301.670 161.088,304.137 163.891 C 307.354 167.546,304.199 172.680,299.026 172.211 C 293.215 171.684,290.682 163.720,294.856 159.099 C 296.590 157.180,295.122 157.286,320.000 157.286 L 342.065 157.286 343.021 157.798 C 347.205 160.038,348.177 166.254,344.935 170.039 C 340.564 175.143,331.594 170.497,334.852 164.817 C 335.777 163.205,336.403 162.832,338.186 162.832 C 340.754 162.832,342.044 164.930,340.766 167.026 C 340.179 167.989,340.166 168.777,340.727 169.285 C 342.546 170.932,344.830 166.823,343.802 163.752 C 342.415 159.610,336.198 158.605,333.225 162.042 C 328.254 167.789,334.029 176.601,341.708 174.986 C 350.876 173.057,352.718 159.346,344.362 155.231 L 342.783 154.454 320.477 154.412 C 303.510 154.379,297.860 154.439,296.873 154.660 " stroke="none" fill="#151515" fill-rule="evenodd"></path><path id="path1" d="M114.926 89.676 C 114.732 89.801,114.201 89.909,113.746 89.915 C 113.292 89.922,112.714 90.082,112.462 90.273 C 112.210 90.464,111.858 90.619,111.679 90.619 C 110.004 90.619,105.487 95.780,105.487 97.694 C 105.487 98.066,105.363 98.907,105.212 99.563 C 104.305 103.489,106.361 108.883,110.102 112.396 C 111.337 113.556,112.007 114.417,112.538 115.530 C 113.374 117.279,113.655 117.468,114.657 116.949 C 116.344 116.077,120.062 117.081,121.287 118.738 C 125.734 124.753,123.273 132.231,117.149 131.312 C 112.591 130.629,112.603 125.175,117.168 122.825 C 119.190 121.784,115.642 120.356,113.204 121.229 C 111.688 121.773,111.461 121.635,110.594 119.646 C 109.745 117.697,108.472 116.578,107.106 116.578 C 106.421 116.578,106.420 116.580,106.779 117.274 C 107.201 118.092,107.251 120.052,106.873 120.992 C 105.470 124.483,105.104 127.093,105.817 128.535 C 107.290 131.517,107.952 132.557,108.978 133.498 C 109.779 134.233,113.596 136.164,114.256 136.169 C 114.560 136.171,115.233 136.325,115.752 136.512 C 116.990 136.958,119.512 136.963,120.965 136.522 C 121.603 136.328,122.362 136.169,122.653 136.168 C 123.273 136.165,127.528 134.142,127.927 133.661 C 128.077 133.481,128.305 133.333,128.434 133.333 C 128.768 133.333,129.861 132.053,131.050 130.265 C 132.723 127.753,133.382 123.324,132.510 120.450 C 132.317 119.813,132.157 119.053,132.156 118.761 C 132.155 118.469,132.067 118.230,131.961 118.230 C 131.855 118.230,131.584 117.843,131.359 117.370 C 130.676 115.938,128.849 113.533,127.938 112.865 C 126.394 111.733,124.589 109.743,124.125 108.661 C 123.575 107.377,123.164 107.185,122.078 107.703 C 118.093 109.603,114.454 105.967,114.454 100.085 C 114.454 96.904,115.085 95.520,116.979 94.547 C 117.902 94.073,120.417 94.022,120.868 94.467 C 121.040 94.637,121.376 94.850,121.615 94.941 C 121.855 95.031,122.106 95.317,122.174 95.576 C 122.242 95.835,122.377 96.047,122.475 96.047 C 122.812 96.047,123.243 98.146,123.082 99.006 C 122.847 100.260,121.226 101.833,119.967 102.028 C 118.698 102.226,118.513 102.724,119.458 103.397 C 120.433 104.091,122.481 104.278,123.293 103.746 C 124.410 103.014,125.246 103.232,125.794 104.398 C 126.561 106.031,127.769 107.296,128.731 107.477 C 129.870 107.691,130.102 107.491,129.675 106.665 C 129.187 105.723,129.232 104.597,129.836 102.593 C 130.401 100.721,130.678 96.979,130.312 96.183 C 130.187 95.914,129.896 95.238,129.664 94.682 C 129.235 93.653,128.245 92.624,126.664 91.563 C 126.181 91.239,125.784 90.894,125.783 90.796 C 125.782 90.699,125.612 90.619,125.405 90.619 C 125.198 90.619,124.747 90.474,124.402 90.296 C 124.058 90.117,123.397 89.852,122.933 89.706 C 121.905 89.381,115.420 89.357,114.926 89.676 M146.785 89.670 C 146.590 89.799,146.032 89.906,145.546 89.908 C 145.059 89.910,144.661 90.006,144.661 90.122 C 144.661 90.238,144.386 90.401,144.051 90.485 C 141.205 91.200,139.165 95.818,138.780 102.419 C 138.462 107.865,137.956 110.678,137.293 110.678 C 137.192 110.678,137.109 110.827,137.109 111.008 C 137.109 111.189,136.730 111.670,136.267 112.077 L 135.424 112.817 136.214 113.606 C 136.941 114.334,137.364 115.032,138.016 116.578 C 138.319 117.299,138.452 118.464,138.767 123.186 C 139.110 128.320,140.362 131.964,142.381 133.699 C 143.533 134.688,146.328 136.164,147.055 136.168 C 147.361 136.169,148.132 136.328,148.769 136.522 C 149.406 136.715,150.743 136.873,151.740 136.873 C 152.738 136.873,154.075 136.715,154.712 136.522 C 155.349 136.328,156.136 136.169,156.460 136.167 C 156.785 136.165,157.398 135.951,157.823 135.692 C 158.248 135.433,158.698 135.221,158.824 135.221 C 159.135 135.221,162.124 133.057,162.124 132.832 C 162.124 132.733,162.363 132.249,162.655 131.756 C 164.135 129.257,164.773 126.425,164.959 121.534 C 165.145 116.645,165.556 115.037,167.022 113.464 L 167.615 112.828 166.999 112.096 C 165.560 110.386,165.153 108.764,164.952 103.953 C 164.583 95.077,162.391 90.830,157.665 89.833 C 156.140 89.511,147.227 89.378,146.785 89.670 M270.206 89.676 C 270.012 89.801,269.591 89.906,269.270 89.908 C 267.965 89.916,265.158 91.412,263.223 93.131 C 258.630 97.210,259.590 106.852,265.121 112.205 C 267.005 114.027,268.319 115.851,268.319 116.642 C 268.319 117.205,269.146 117.359,269.947 116.944 C 270.844 116.480,272.804 116.469,273.406 116.925 C 273.658 117.115,274.079 117.275,274.342 117.279 C 277.254 117.324,279.969 125.003,278.249 128.328 C 276.842 131.049,272.956 132.283,270.851 130.677 C 267.973 128.482,268.410 125.072,271.812 123.177 C 273.204 122.401,273.252 122.168,272.171 121.434 C 271.146 120.737,269.528 120.624,268.555 121.180 C 267.269 121.915,266.735 121.675,265.988 120.027 C 265.069 118.000,263.645 116.578,262.534 116.578 L 261.705 116.578 262.062 117.433 C 262.258 117.903,262.419 118.588,262.419 118.955 C 262.419 119.581,262.289 120.134,261.371 123.422 C 260.277 127.340,261.643 131.523,264.781 133.865 C 265.945 134.733,268.908 136.164,269.551 136.169 C 269.847 136.171,270.513 136.325,271.032 136.512 C 272.270 136.958,274.792 136.963,276.246 136.522 C 276.883 136.328,277.617 136.169,277.877 136.168 C 278.137 136.166,279.093 135.808,280.001 135.372 C 280.909 134.935,281.758 134.537,281.888 134.487 C 285.502 133.085,288.690 126.984,288.057 122.679 C 287.707 120.291,287.490 119.251,287.205 118.584 C 287.039 118.195,286.787 117.611,286.645 117.286 C 285.969 115.736,283.057 112.438,281.746 111.738 C 281.013 111.347,280.127 110.119,279.317 108.374 C 278.830 107.325,278.426 107.232,277.001 107.845 C 275.026 108.695,273.330 108.245,271.675 106.431 C 269.484 104.029,269.060 97.914,270.914 95.455 C 271.831 94.239,275.349 93.601,276.106 94.513 C 276.268 94.708,276.507 94.867,276.639 94.867 C 277.536 94.867,278.636 97.544,278.355 99.047 C 278.154 100.124,276.395 101.947,275.557 101.947 C 274.377 101.947,274.019 102.547,274.754 103.291 C 275.531 104.077,277.441 104.193,279.045 103.551 C 280.279 103.058,280.347 103.101,281.492 105.113 C 282.639 107.130,282.776 107.260,283.957 107.473 C 285.144 107.687,285.342 107.512,284.905 106.636 C 284.461 105.747,284.616 103.562,285.238 101.947 C 287.210 96.822,284.236 91.640,278.213 89.710 C 277.188 89.381,270.705 89.353,270.206 89.676 M171.976 90.326 C 171.151 90.838,171.161 91.080,172.045 91.927 C 174.114 93.909,174.710 96.475,174.574 102.807 C 174.508 105.865,174.365 107.780,174.162 108.319 C 173.992 108.773,173.741 109.456,173.606 109.836 C 173.470 110.216,173.008 110.987,172.579 111.549 C 171.641 112.778,171.639 112.806,172.412 113.528 C 174.191 115.189,174.700 117.840,174.565 124.745 C 174.441 131.028,174.329 131.518,172.625 133.165 L 171.445 134.306 172.003 134.764 C 172.710 135.345,175.121 135.415,175.575 134.867 C 175.737 134.673,175.965 134.513,176.082 134.513 C 176.200 134.513,176.674 134.168,177.137 133.746 C 178.436 132.562,178.811 132.503,179.610 133.358 C 179.987 133.761,180.295 134.186,180.295 134.302 C 180.295 134.418,180.441 134.513,180.620 134.513 C 180.799 134.513,181.077 134.673,181.239 134.867 C 181.695 135.417,183.119 135.289,184.307 134.592 C 185.902 133.655,188.422 133.662,190.294 134.607 C 191.892 135.413,192.173 135.277,192.173 133.698 C 192.173 132.998,192.026 132.468,191.744 132.157 C 191.235 131.595,191.214 130.377,191.704 129.829 C 192.043 129.450,192.170 128.695,192.119 127.375 C 192.089 126.592,191.396 126.487,190.747 127.168 C 189.655 128.310,185.238 129.076,183.554 128.414 C 181.904 127.765,182.398 116.440,184.155 114.631 C 184.313 114.469,184.739 113.943,185.102 113.462 L 185.762 112.588 185.152 111.931 C 184.817 111.569,184.543 111.139,184.543 110.976 C 184.543 110.812,184.453 110.678,184.343 110.678 C 184.124 110.678,183.563 109.453,183.099 107.965 C 182.906 107.343,182.800 105.290,182.789 101.947 C 182.770 96.131,182.894 95.533,184.669 92.887 C 186.244 90.539,185.996 89.932,183.457 89.919 C 181.931 89.911,180.970 90.401,179.605 91.885 C 178.871 92.684,178.821 92.677,177.635 91.611 C 175.637 89.817,173.559 89.345,171.976 90.326 M196.814 90.379 C 196.378 90.716,196.286 90.921,196.460 91.164 C 199.305 95.126,199.646 96.307,199.646 102.202 C 199.646 107.278,199.231 109.064,197.497 111.458 C 196.658 112.617,196.658 112.651,197.480 113.712 C 199.151 115.870,199.650 118.121,199.638 123.441 C 199.626 128.321,199.263 129.736,197.162 133.071 L 196.361 134.342 196.920 134.782 C 198.231 135.813,200.997 135.195,202.297 133.579 C 203.093 132.590,203.764 132.472,204.404 133.209 C 205.980 135.021,209.027 135.850,210.449 134.854 C 211.101 134.397,211.106 134.160,210.477 133.500 C 208.264 131.175,207.840 129.481,207.836 122.950 C 207.832 117.225,208.330 114.971,209.934 113.451 C 210.632 112.789,210.297 111.718,209.067 110.678 C 208.285 110.018,207.844 106.766,207.834 101.593 C 207.823 95.753,208.319 93.782,210.269 91.914 C 211.147 91.073,211.150 90.826,210.288 90.316 C 209.397 89.790,206.912 89.757,206.490 90.265 C 206.328 90.460,206.087 90.619,205.954 90.619 C 205.820 90.619,205.350 90.991,204.909 91.445 C 203.897 92.488,203.209 92.504,202.305 91.504 C 200.848 89.894,198.154 89.341,196.814 90.379 M214.098 90.380 C 213.627 91.134,213.751 92.274,214.395 93.118 C 214.720 93.544,214.985 94.118,214.985 94.395 C 214.985 94.672,214.720 95.247,214.395 95.672 C 213.299 97.109,213.786 99.131,215.011 98.231 C 216.532 97.115,216.994 96.991,219.623 96.995 C 221.031 96.997,222.342 97.099,222.537 97.222 C 223.020 97.528,223.053 106.234,222.578 107.847 C 222.232 109.021,221.392 110.838,221.008 111.243 C 219.938 112.373,219.907 112.717,220.782 113.765 C 222.163 115.417,222.362 115.985,222.806 119.528 C 223.128 122.099,222.887 128.192,222.409 129.558 C 222.001 130.725,220.645 133.097,220.386 133.097 C 220.297 133.097,220.113 133.414,219.978 133.801 C 219.219 135.977,223.984 135.720,226.023 133.476 C 226.935 132.472,226.979 132.465,227.679 133.203 C 229.505 135.129,232.321 135.864,233.661 134.764 C 234.274 134.261,234.317 134.383,232.861 132.483 C 232.375 131.847,231.917 131.062,231.844 130.737 C 231.771 130.413,231.621 129.977,231.510 129.769 C 230.726 128.301,230.718 118.505,231.500 116.696 C 231.612 116.437,231.769 115.926,231.848 115.561 C 231.927 115.197,232.414 114.441,232.928 113.883 C 234.034 112.683,234.050 112.586,233.252 111.841 C 231.266 109.985,229.890 100.038,231.265 97.470 C 231.587 96.868,235.813 96.753,236.896 97.318 C 238.691 98.254,239.265 98.468,239.615 98.334 C 240.189 98.113,240.084 96.797,239.404 95.693 C 238.674 94.508,238.675 94.112,239.410 93.030 C 240.523 91.392,239.970 89.549,238.581 90.267 C 238.206 90.461,237.703 90.619,237.463 90.619 C 237.223 90.619,236.921 90.725,236.793 90.853 C 236.328 91.318,234.426 91.407,233.615 91.002 C 233.193 90.792,232.672 90.619,232.457 90.619 C 232.242 90.619,231.860 90.464,231.609 90.273 C 230.695 89.582,229.345 89.815,228.229 90.855 C 226.980 92.021,226.903 92.020,225.658 90.830 C 224.362 89.590,223.516 89.623,220.202 91.040 C 219.353 91.402,217.451 91.291,217.012 90.853 C 216.884 90.725,216.555 90.619,216.281 90.619 C 216.007 90.619,215.577 90.464,215.325 90.273 C 214.705 89.804,214.444 89.827,214.098 90.380 M242.891 90.370 C 242.225 90.926,242.228 91.044,242.928 91.786 C 245.450 94.462,246.527 100.555,245.519 106.448 C 245.109 108.849,244.879 109.431,243.597 111.322 L 242.761 112.555 243.439 113.563 C 245.198 116.181,245.907 119.050,245.893 123.490 C 245.879 127.655,245.243 129.794,242.884 133.612 C 241.429 135.968,246.866 135.748,248.530 133.384 C 249.104 132.567,249.835 132.519,250.516 133.253 C 252.232 135.105,255.033 135.858,256.467 134.854 C 257.172 134.360,257.133 134.138,256.149 133.048 C 252.995 129.558,252.731 117.271,255.733 113.764 C 256.664 112.676,256.695 112.386,255.951 111.682 C 254.376 110.189,253.829 107.577,253.838 101.593 C 253.846 96.015,254.384 93.898,256.300 91.906 C 257.161 91.010,257.162 90.822,256.306 90.316 C 254.752 89.398,252.182 90.045,250.730 91.719 C 250.044 92.509,249.169 92.431,248.345 91.504 C 246.934 89.918,244.132 89.335,242.891 90.370 M154.255 94.761 C 154.689 95.092,155.044 95.549,155.044 95.776 C 155.044 96.003,155.164 96.308,155.309 96.454 C 156.098 97.242,156.085 108.080,155.294 108.871 C 155.157 109.008,155.044 109.424,155.044 109.795 C 155.044 110.166,154.779 110.945,154.454 111.526 C 154.130 112.108,153.864 112.735,153.864 112.920 C 153.864 113.106,154.130 113.733,154.454 114.314 C 154.779 114.896,155.044 115.675,155.044 116.045 C 155.044 116.416,155.154 116.829,155.288 116.963 C 156.036 117.711,156.132 126.615,155.409 128.254 C 155.236 128.647,155.034 129.154,154.959 129.381 C 154.280 131.442,150.087 131.622,148.792 129.645 C 146.975 126.872,147.340 117.879,149.430 113.881 L 149.915 112.955 149.377 111.875 C 149.081 111.282,148.745 110.607,148.631 110.376 C 147.388 107.859,147.428 97.420,148.688 95.402 C 149.557 94.010,152.783 93.639,154.255 94.761 " stroke="none" fill="#fc7404" fill-rule="evenodd"></path><path id="path2" d="M0.000 117.994 L 0.000 235.988 200.000 235.988 L 400.000 235.988 400.000 117.994 L 400.000 0.000 200.000 0.000 L 0.000 0.000 0.000 117.994 M181.593 36.467 C 182.112 36.654,182.666 36.809,182.825 36.811 C 183.280 36.816,186.270 38.292,186.667 38.708 C 186.732 38.775,187.084 39.021,187.449 39.254 C 190.933 41.473,194.690 46.528,194.690 48.996 C 194.690 49.783,195.355 49.714,195.533 48.909 C 196.486 44.622,202.226 38.562,206.732 37.086 C 209.562 36.159,209.899 36.106,212.929 36.112 C 219.524 36.123,226.568 39.818,234.831 47.601 C 235.427 48.163,236.444 49.019,237.090 49.503 C 237.737 49.987,238.842 50.883,239.546 51.495 C 242.029 53.649,242.250 53.838,247.702 58.452 C 249.667 60.115,252.109 62.163,253.130 63.005 C 254.150 63.846,255.038 64.590,255.103 64.657 C 255.252 64.811,256.892 66.142,260.059 68.680 C 261.422 69.772,262.590 70.728,262.655 70.805 C 262.916 71.114,266.592 73.815,268.166 74.854 C 273.361 78.284,279.308 77.964,282.578 74.078 C 288.118 67.494,279.653 57.665,273.748 63.824 C 270.716 66.986,274.620 72.444,277.872 69.589 C 278.860 68.721,278.895 68.288,278.103 66.670 C 276.911 64.232,278.938 62.459,280.924 64.203 C 284.093 66.985,282.529 72.586,278.209 73.927 C 270.623 76.281,265.531 66.683,271.247 60.802 C 272.317 59.700,274.327 58.525,275.140 58.525 C 275.397 58.525,275.672 58.419,275.752 58.289 C 275.832 58.159,276.841 58.053,277.994 58.053 C 279.147 58.053,280.156 58.159,280.236 58.289 C 280.316 58.419,280.621 58.525,280.913 58.525 C 283.100 58.525,286.304 61.930,287.773 65.817 C 289.956 71.588,285.411 79.313,278.998 80.735 C 274.462 81.740,270.364 80.904,265.848 78.052 C 264.985 77.507,262.069 75.342,261.593 74.893 C 261.333 74.648,260.218 73.767,259.115 72.935 C 258.012 72.102,257.056 71.357,256.991 71.278 C 256.926 71.199,256.555 70.890,256.165 70.592 C 255.776 70.294,255.032 69.657,254.513 69.177 C 253.994 68.696,252.932 67.801,252.153 67.187 C 249.960 65.457,247.138 63.115,244.131 60.531 C 242.621 59.233,240.765 57.693,240.007 57.109 C 238.625 56.045,237.102 54.764,235.070 52.956 C 234.472 52.425,233.770 51.822,233.510 51.618 C 233.251 51.414,232.355 50.681,231.520 49.989 C 227.723 46.845,225.001 44.669,224.137 44.085 C 223.620 43.737,223.017 43.289,222.798 43.091 C 221.455 41.875,218.694 40.813,215.221 40.176 C 207.206 38.707,198.938 45.304,198.938 53.168 C 198.938 60.426,205.374 66.344,211.283 64.519 C 218.277 62.358,220.204 55.829,215.184 51.301 C 211.696 48.155,205.077 52.948,207.782 56.661 C 209.764 59.384,207.874 62.057,205.464 59.941 C 199.093 54.348,207.463 43.574,215.465 47.068 C 228.155 52.609,219.980 71.551,206.302 68.296 C 201.385 67.126,195.634 61.499,195.634 57.858 C 195.634 57.425,195.211 56.873,194.879 56.873 C 194.775 56.873,194.690 57.193,194.690 57.584 C 194.690 57.975,194.593 58.480,194.475 58.705 C 194.356 58.931,193.937 59.778,193.542 60.589 C 191.826 64.114,189.385 66.453,186.077 67.741 C 175.451 71.878,164.771 61.392,169.841 51.799 C 172.963 45.894,180.642 44.700,184.980 49.446 C 187.777 52.506,187.841 56.914,185.129 59.646 C 182.889 61.901,180.530 59.664,182.340 57.001 C 185.522 52.318,178.136 47.734,174.339 52.035 C 168.217 58.972,177.778 68.244,186.030 63.374 C 187.971 62.228,190.687 58.663,190.988 56.866 C 191.063 56.416,191.256 55.429,191.416 54.674 C 191.701 53.331,191.655 52.765,191.031 49.912 C 190.236 46.275,185.805 41.918,181.593 40.629 C 178.575 39.706,176.150 39.749,172.153 40.794 C 170.314 41.276,167.114 43.221,164.507 45.443 C 164.040 45.841,162.988 46.675,162.169 47.297 C 161.350 47.918,160.228 48.814,159.676 49.287 C 159.125 49.760,158.234 50.502,157.696 50.936 C 156.634 51.793,156.017 52.318,154.926 53.295 C 154.537 53.644,153.932 54.151,153.582 54.422 C 153.233 54.693,152.383 55.396,151.695 55.985 C 151.006 56.574,149.381 57.919,148.083 58.974 C 146.785 60.030,145.298 61.290,144.779 61.776 C 144.259 62.262,143.410 62.977,142.891 63.365 C 142.372 63.753,141.197 64.708,140.280 65.486 C 139.363 66.265,138.301 67.161,137.920 67.476 C 136.780 68.420,134.404 70.434,134.277 70.564 C 133.895 70.957,129.604 74.336,129.487 74.336 C 129.410 74.336,129.048 74.614,128.685 74.954 C 122.501 80.729,114.719 82.645,108.965 79.809 C 102.735 76.738,100.514 69.979,103.586 63.443 C 104.504 61.489,108.054 58.525,109.475 58.525 C 109.732 58.525,110.008 58.419,110.088 58.289 C 110.317 57.920,113.968 58.015,115.162 58.421 C 122.092 60.778,123.863 68.404,118.544 72.989 C 115.185 75.885,108.793 73.709,107.810 69.335 C 107.006 65.756,111.075 61.411,112.356 64.481 C 112.722 65.360,112.697 65.571,112.057 66.981 C 110.852 69.635,113.747 71.469,116.264 69.646 C 118.682 67.894,117.609 63.060,114.657 62.412 C 114.289 62.331,113.927 62.167,113.853 62.047 C 113.264 61.093,109.385 62.357,108.025 63.946 C 103.733 68.960,106.525 75.772,113.458 77.197 C 116.197 77.760,120.545 76.362,123.621 73.929 C 124.404 73.309,125.806 72.218,126.735 71.504 C 127.665 70.791,128.615 70.047,128.847 69.853 C 129.079 69.658,130.523 68.490,132.056 67.257 C 133.588 66.024,135.273 64.634,135.799 64.170 C 136.325 63.705,137.923 62.383,139.351 61.231 C 140.779 60.080,142.000 59.073,142.065 58.993 C 142.130 58.914,143.192 58.009,144.425 56.982 C 145.658 55.955,147.576 54.316,148.688 53.339 C 151.236 51.101,152.989 49.632,154.077 48.823 C 154.544 48.476,155.556 47.596,156.326 46.869 C 157.096 46.141,157.796 45.546,157.882 45.546 C 157.968 45.546,158.347 45.272,158.724 44.937 C 159.101 44.602,159.994 43.885,160.708 43.344 C 161.422 42.803,162.205 42.181,162.448 41.962 C 167.388 37.508,176.903 34.777,181.593 36.467 M52.858 59.704 C 60.773 62.061,61.905 72.988,54.479 75.339 C 48.119 77.353,42.584 69.604,47.455 65.505 C 49.383 63.882,51.408 65.803,50.147 68.061 C 49.228 69.708,49.413 70.691,50.772 71.369 C 54.088 73.022,56.880 69.093,54.914 65.541 C 53.982 63.859,49.433 62.567,48.329 63.671 C 48.174 63.826,47.874 63.953,47.662 63.953 C 46.345 63.953,44.075 67.824,43.935 70.309 C 43.768 73.256,45.879 76.384,48.500 77.074 C 50.396 77.573,90.899 77.542,92.627 77.040 C 93.935 76.659,96.047 75.050,96.047 74.434 C 96.047 74.251,96.135 74.100,96.243 74.100 C 96.859 74.100,97.181 70.117,96.716 68.246 C 95.561 63.597,89.948 61.754,86.608 64.926 C 84.243 67.172,85.692 71.740,88.770 71.740 C 90.984 71.740,92.045 69.879,90.855 68.083 C 89.440 65.945,92.001 63.686,93.731 65.546 C 96.078 68.069,95.809 72.170,93.165 74.181 C 91.294 75.604,87.484 76.251,86.539 75.306 C 86.395 75.162,86.139 75.044,85.971 75.044 C 83.379 75.044,80.812 69.552,81.786 66.092 C 84.930 54.927,101.030 58.632,100.999 70.513 C 100.987 75.182,97.136 80.694,93.878 80.706 C 93.529 80.707,93.178 80.814,93.097 80.944 C 92.881 81.294,48.801 81.266,47.686 80.914 C 42.880 79.400,40.118 75.594,40.118 70.486 C 40.118 63.138,46.435 57.791,52.858 59.704 M301.845 59.607 C 310.109 62.020,311.382 72.429,303.771 75.364 C 297.636 77.729,291.674 68.942,296.921 65.267 C 298.889 63.889,300.604 66.011,299.344 68.266 C 298.627 69.548,298.955 70.907,300.110 71.445 C 304.491 73.486,306.850 66.318,302.515 64.137 C 298.832 62.284,295.274 63.811,293.705 67.919 C 292.260 71.699,294.212 76.154,297.718 77.077 C 299.345 77.506,340.113 77.525,341.729 77.098 C 348.855 75.215,347.427 63.499,340.059 63.398 C 336.076 63.344,333.576 66.862,335.305 70.087 C 337.113 73.457,341.884 71.505,340.208 68.082 C 339.550 66.739,339.577 66.311,340.371 65.428 C 341.887 63.744,344.779 66.423,344.779 69.511 C 344.779 75.084,337.309 77.722,333.178 73.608 C 327.176 67.633,333.907 57.186,342.199 59.607 C 343.714 60.050,345.487 60.888,345.487 61.163 C 345.487 61.270,345.604 61.357,345.748 61.357 C 346.355 61.357,347.827 62.858,348.571 64.237 C 352.352 71.246,349.679 78.762,342.638 80.922 C 341.430 81.292,298.060 81.284,296.890 80.913 C 294.945 80.297,294.094 79.811,292.735 78.541 C 291.946 77.803,291.132 76.847,290.926 76.417 C 288.940 72.269,288.824 69.783,290.417 65.513 C 291.992 61.293,297.633 58.378,301.845 59.607 M359.943 83.081 C 361.688 83.565,362.057 85.336,360.614 86.305 L 359.812 86.844 195.234 86.844 C 48.902 86.844,30.579 86.804,29.966 86.487 C 28.241 85.595,28.540 83.523,30.459 83.071 C 31.722 82.773,358.871 82.783,359.943 83.081 M125.167 90.016 C 130.574 92.716,132.232 96.399,130.645 102.183 C 129.908 104.869,129.892 105.356,130.490 106.873 C 130.894 107.899,130.906 108.058,130.589 108.180 C 128.916 108.822,125.848 106.927,125.422 104.989 C 125.217 104.053,124.793 103.774,124.025 104.066 C 122.559 104.623,119.672 104.369,118.920 103.617 C 117.872 102.569,118.098 101.475,119.363 101.475 C 121.794 101.475,123.280 98.614,121.987 96.422 C 120.759 94.341,118.330 94.025,116.381 95.693 C 113.903 97.813,115.073 105.314,118.166 107.139 C 118.998 107.630,120.923 107.790,121.172 107.388 C 121.941 106.144,124.198 107.015,125.046 108.884 C 125.448 109.773,125.993 110.555,126.394 110.822 C 133.690 115.665,135.674 126.321,130.404 132.364 C 129.098 133.862,124.839 136.401,123.634 136.401 C 123.379 136.401,122.789 136.560,122.323 136.755 C 120.393 137.562,114.820 137.155,112.177 136.014 C 111.768 135.838,111.364 135.693,111.279 135.693 C 110.265 135.693,107.080 132.614,106.229 130.812 C 105.934 130.187,105.601 129.504,105.489 129.294 C 104.808 128.017,104.992 124.849,105.935 121.596 C 106.524 119.565,106.556 118.587,106.069 117.423 C 105.592 116.281,105.748 116.106,107.249 116.106 C 108.993 116.106,111.622 118.726,111.622 120.463 C 111.622 120.872,112.682 120.976,112.920 120.590 C 113.339 119.912,116.754 120.329,117.642 121.166 C 118.600 122.070,118.712 123.012,117.876 123.140 C 116.261 123.386,114.465 125.624,114.458 127.397 C 114.446 130.734,118.737 131.920,121.472 129.335 C 125.465 125.562,120.483 115.398,115.559 117.270 C 115.194 117.409,114.420 117.522,113.839 117.522 L 112.783 117.522 112.120 116.047 C 111.615 114.924,110.922 114.038,109.214 112.330 C 101.865 104.984,103.287 92.946,111.858 89.956 C 112.572 89.707,113.634 89.334,114.218 89.127 C 115.049 88.832,116.102 88.761,119.056 88.800 L 122.832 88.850 125.167 90.016 M157.104 89.065 C 157.594 89.249,158.289 89.464,158.649 89.544 C 162.684 90.431,165.012 94.826,165.300 102.102 C 165.524 107.740,165.974 109.605,167.651 111.845 C 168.396 112.840,168.405 113.056,167.727 113.692 C 166.162 115.163,165.523 117.727,165.322 123.347 C 165.105 129.400,163.138 133.827,159.973 135.384 C 158.751 135.986,157.721 136.373,156.932 136.529 C 156.478 136.618,155.983 136.791,155.833 136.912 C 155.391 137.267,148.051 137.010,146.511 136.586 C 140.802 135.012,138.053 130.062,138.053 121.354 C 138.053 117.934,136.806 114.445,135.232 113.462 C 134.578 113.054,134.607 112.946,135.690 111.771 C 137.441 109.872,137.870 108.501,138.066 104.189 C 138.528 94.026,140.017 91.227,146.077 89.133 C 147.547 88.625,155.796 88.574,157.104 89.065 M279.764 89.651 C 285.966 92.631,287.831 96.862,285.631 102.955 C 285.200 104.149,285.225 105.827,285.690 106.806 C 286.169 107.816,285.985 108.320,285.140 108.315 C 283.245 108.305,281.410 106.925,280.558 104.869 L 280.042 103.626 279.384 103.966 C 277.283 105.053,273.510 104.056,273.510 102.414 C 273.510 101.707,273.645 101.622,275.199 101.347 C 278.910 100.691,278.052 94.631,274.249 94.631 C 271.362 94.631,270.248 96.598,270.504 101.241 C 270.767 106.023,273.270 108.393,276.827 107.230 C 278.048 106.831,279.646 106.939,279.646 107.421 C 279.646 108.333,281.002 110.306,282.386 111.407 C 290.888 118.172,290.951 129.787,282.515 134.808 C 281.697 135.295,280.972 135.693,280.904 135.693 C 280.835 135.693,280.445 135.837,280.036 136.012 C 277.575 137.068,271.436 137.382,268.876 136.584 C 262.312 134.536,259.155 129.319,260.769 123.186 C 261.711 119.605,261.779 118.981,261.366 117.719 C 260.892 116.269,260.996 116.106,262.397 116.106 C 264.217 116.106,265.713 117.414,266.564 119.748 C 266.907 120.689,267.473 121.025,268.079 120.647 C 269.028 120.055,271.898 120.272,272.763 121.003 C 273.695 121.791,273.922 123.022,273.156 123.140 C 269.783 123.656,268.531 128.809,271.420 130.283 C 275.565 132.397,279.266 127.922,277.778 122.596 C 276.756 118.941,273.340 116.319,270.840 117.270 C 268.922 117.999,267.925 117.595,267.262 115.822 C 267.016 115.164,266.411 114.299,265.777 113.698 C 261.710 109.843,260.538 107.766,259.955 103.370 C 259.071 96.716,261.954 91.599,267.611 89.781 C 268.324 89.551,269.280 89.223,269.735 89.052 C 271.568 88.359,277.857 88.735,279.764 89.651 M176.405 89.936 C 176.922 90.209,177.616 90.686,177.948 90.998 C 178.681 91.686,178.918 91.701,179.467 91.094 C 181.081 89.311,184.632 88.785,185.977 90.129 C 186.851 91.004,186.848 91.037,185.755 92.418 C 182.532 96.490,182.440 107.831,185.601 111.482 C 186.342 112.338,186.349 113.003,185.623 113.691 C 183.951 115.275,183.481 117.335,183.481 123.068 L 183.481 127.788 185.722 127.856 C 188.117 127.930,189.080 127.675,190.604 126.565 C 191.932 125.597,193.038 126.251,193.038 128.004 C 193.038 128.675,192.344 130.265,192.051 130.265 C 191.664 130.265,191.874 131.211,192.448 132.058 C 194.196 134.633,192.480 136.421,189.642 134.982 C 187.893 134.095,186.890 134.090,185.111 134.958 C 182.509 136.229,181.497 136.159,179.865 134.595 C 178.772 133.547,178.085 133.310,177.858 133.901 C 177.788 134.083,177.219 134.588,176.594 135.022 C 173.817 136.950,169.051 135.237,171.659 133.248 C 173.544 131.811,174.159 129.582,174.159 124.193 C 174.159 118.633,173.600 116.191,171.727 113.568 L 171.009 112.563 171.767 111.562 C 173.452 109.334,174.160 106.560,174.158 102.183 C 174.157 97.399,173.552 94.963,171.772 92.576 C 170.763 91.224,170.645 90.640,171.268 90.097 C 172.226 89.262,174.965 89.176,176.405 89.936 M201.398 90.032 C 201.954 90.357,202.600 90.835,202.834 91.094 C 203.422 91.743,203.928 91.682,204.709 90.866 C 206.144 89.369,209.011 88.918,210.651 89.931 C 211.665 90.557,211.659 91.076,210.622 92.434 C 207.417 96.632,207.284 107.701,210.396 111.337 C 211.398 112.507,211.398 112.539,210.395 113.934 C 208.604 116.428,207.949 119.788,208.270 124.838 C 208.538 129.059,209.055 130.737,210.745 132.871 C 213.229 136.007,207.710 137.144,204.511 134.155 L 203.594 133.299 202.741 134.100 C 199.427 137.211,193.912 136.053,196.586 132.808 C 199.736 128.986,199.891 117.404,196.837 113.927 C 195.889 112.847,195.915 112.399,197.009 111.004 C 198.575 109.007,198.820 107.779,198.820 101.947 C 198.819 95.764,198.651 95.103,196.283 92.012 C 195.466 90.945,195.472 90.798,196.360 90.050 C 197.401 89.175,199.920 89.165,201.398 90.032 M215.540 89.771 C 217.623 90.699,219.534 91.087,219.812 90.638 C 219.886 90.518,220.271 90.349,220.668 90.261 C 221.064 90.174,221.674 89.954,222.022 89.773 C 223.223 89.146,224.732 89.342,225.968 90.285 L 227.076 91.130 227.854 90.376 C 229.031 89.235,230.269 89.178,232.832 90.145 L 234.866 90.913 236.312 90.480 C 237.107 90.242,238.024 89.911,238.348 89.745 C 240.260 88.765,241.346 90.917,240.098 93.210 L 239.488 94.331 240.098 95.535 C 241.449 98.202,240.247 100.188,238.213 98.650 C 237.703 98.264,237.122 97.945,236.920 97.942 C 236.719 97.938,236.427 97.807,236.271 97.651 C 235.959 97.339,232.601 97.234,231.917 97.515 C 230.528 98.085,231.660 108.376,233.398 110.979 C 234.467 112.580,234.539 113.018,233.839 113.651 C 230.448 116.715,230.628 129.224,234.120 133.202 C 236.472 135.880,231.129 137.041,228.310 134.464 C 227.009 133.275,226.993 133.268,226.644 133.766 C 225.017 136.089,220.125 136.683,219.207 134.669 C 218.975 134.160,219.056 133.941,219.885 132.827 C 223.218 128.353,223.188 116.303,219.837 113.522 C 219.294 113.071,219.387 112.388,220.124 111.420 C 221.791 109.234,222.376 106.487,222.263 101.377 C 222.219 99.375,222.094 97.649,221.985 97.541 C 221.420 96.981,217.483 97.350,216.432 98.062 C 214.221 99.559,214.302 99.534,213.791 98.912 C 213.113 98.087,213.184 96.503,213.959 95.181 C 214.322 94.563,214.490 94.049,214.358 93.959 C 213.241 93.199,212.911 90.470,213.858 89.807 C 214.500 89.357,214.606 89.355,215.540 89.771 M247.416 90.032 C 247.972 90.357,248.618 90.835,248.851 91.094 C 249.425 91.727,249.952 91.685,250.637 90.950 C 251.710 89.801,252.874 89.382,254.728 89.480 C 257.414 89.621,258.103 90.569,256.756 92.270 C 256.367 92.761,255.704 93.838,255.281 94.664 L 254.513 96.165 254.528 101.829 C 254.545 108.224,254.744 109.231,256.391 111.240 C 257.386 112.455,257.420 112.806,256.628 113.660 C 256.299 114.016,255.688 115.004,255.271 115.855 L 254.513 117.404 254.516 123.068 L 254.518 128.732 255.275 130.339 C 255.691 131.224,256.353 132.354,256.747 132.851 C 259.166 135.905,254.175 137.207,250.867 134.384 L 249.605 133.306 248.755 134.104 C 245.528 137.132,239.985 136.017,242.555 132.856 C 245.823 128.837,245.919 116.748,242.708 113.703 C 241.919 112.955,241.975 112.510,243.036 111.081 C 244.460 109.165,244.737 108.043,244.884 103.599 C 245.097 97.197,244.561 94.641,242.501 92.234 C 240.579 89.989,244.413 88.272,247.416 90.032 M149.662 95.297 C 147.677 97.151,147.970 109.100,150.065 111.765 C 150.707 112.580,150.690 113.087,149.984 114.164 C 148.690 116.137,148.555 116.960,148.555 122.850 L 148.555 128.296 149.210 129.155 C 150.481 130.822,153.344 130.850,154.315 129.206 C 156.086 126.207,155.241 114.681,153.156 113.392 C 152.829 113.190,153.033 112.565,153.873 111.189 C 155.866 107.924,155.829 96.992,153.818 95.280 C 152.704 94.332,150.687 94.340,149.662 95.297 M360.360 148.589 C 361.659 149.454,361.901 150.494,361.021 151.430 L 360.508 151.976 195.138 151.976 L 29.769 151.976 29.280 151.355 C 28.459 150.312,28.673 149.449,29.964 148.589 C 30.865 147.989,359.459 147.989,360.360 148.589 M93.110 153.938 C 95.413 154.421,98.133 156.275,98.983 157.941 C 99.196 158.359,99.583 159.059,99.843 159.495 C 102.907 164.646,98.820 175.103,93.742 175.103 C 93.504 175.103,93.185 175.228,93.032 175.381 C 91.834 176.579,86.578 175.227,84.306 173.136 C 77.193 166.591,85.496 155.012,93.129 160.834 C 95.598 162.718,96.086 166.856,94.103 169.113 C 91.965 171.549,89.476 169.698,90.959 166.775 C 92.132 164.463,89.889 162.208,87.599 163.399 C 83.508 165.528,85.775 171.799,90.635 171.799 C 97.701 171.799,99.555 160.381,92.861 158.082 C 92.088 157.817,88.039 157.758,70.442 157.758 L 48.968 157.758 47.580 158.348 C 44.556 159.633,43.102 163.917,44.502 167.414 C 46.295 171.894,51.182 173.205,54.309 170.046 C 57.562 166.760,53.893 160.858,50.502 163.921 C 49.551 164.781,49.185 166.114,49.797 166.492 C 51.307 167.425,50.507 170.135,48.719 170.144 C 46.340 170.156,44.924 165.609,46.431 162.797 C 49.873 156.374,59.469 159.521,59.469 167.074 C 59.469 170.694,56.168 175.089,53.440 175.101 C 53.173 175.102,52.834 175.225,52.685 175.374 C 51.948 176.111,48.052 175.639,45.826 174.542 C 37.443 170.414,38.685 156.160,47.617 153.995 C 49.518 153.534,90.937 153.482,93.110 153.938 M118.249 154.073 C 120.832 154.707,123.882 156.419,127.850 159.459 C 129.763 160.925,131.912 162.568,132.625 163.112 C 133.339 163.656,134.454 164.555,135.103 165.110 C 135.752 165.665,137.398 167.040,138.761 168.165 C 140.124 169.291,141.775 170.702,142.431 171.300 C 143.087 171.899,144.104 172.761,144.693 173.215 C 145.281 173.670,146.231 174.428,146.804 174.902 C 147.378 175.375,148.909 176.627,150.206 177.684 C 152.364 179.441,154.476 181.211,157.403 183.717 C 158.010 184.236,158.765 184.873,159.082 185.133 C 159.398 185.392,160.929 186.670,162.483 187.972 C 167.077 191.820,171.255 194.454,172.766 194.454 C 172.961 194.454,173.251 194.584,173.409 194.742 C 173.887 195.221,180.459 195.116,181.357 194.616 C 181.746 194.399,182.192 194.221,182.347 194.220 C 182.807 194.217,185.262 192.687,186.785 191.453 C 188.313 190.214,190.765 186.670,190.993 185.369 C 191.061 184.979,191.240 184.077,191.391 183.364 C 191.679 181.998,191.515 179.222,191.132 178.986 C 191.012 178.912,190.914 178.581,190.914 178.251 C 190.914 176.394,187.655 172.226,185.393 171.190 C 177.341 167.504,168.907 175.735,173.907 182.402 C 177.588 187.310,185.264 183.422,182.419 178.091 C 180.741 174.947,183.137 172.929,185.432 175.553 C 188.509 179.072,186.859 186.011,182.562 187.620 C 182.159 187.771,181.588 188.009,181.293 188.149 C 180.619 188.469,175.689 188.467,175.285 188.146 C 175.120 188.015,174.591 187.781,174.109 187.626 C 171.487 186.782,168.496 181.671,168.496 178.037 C 168.496 173.610,172.349 168.424,176.637 167.079 C 177.156 166.916,177.825 166.691,178.123 166.577 C 179.959 165.881,184.352 166.396,186.848 167.601 C 190.547 169.387,194.690 174.615,194.690 177.496 C 194.690 178.397,195.198 178.289,195.487 177.326 C 198.466 167.405,208.967 163.417,217.080 169.124 C 226.948 176.066,220.019 191.691,208.726 187.966 C 207.284 187.491,204.130 184.762,204.130 183.991 C 204.130 183.815,203.957 183.324,203.745 182.900 C 202.229 179.861,204.734 173.844,207.252 174.476 C 208.871 174.883,209.198 176.298,208.028 177.833 C 205.057 181.728,210.500 186.580,214.790 183.860 C 221.240 179.770,217.234 170.364,209.051 170.386 C 200.065 170.411,195.585 182.819,202.011 189.883 C 203.556 191.580,207.183 194.216,207.980 194.220 C 208.134 194.221,208.578 194.398,208.968 194.614 C 210.128 195.258,215.848 195.192,217.622 194.514 C 221.418 193.064,224.135 191.291,228.778 187.236 C 230.189 186.003,234.949 182.016,237.286 180.109 C 238.195 179.368,239.686 178.124,240.601 177.345 C 242.820 175.455,244.336 174.214,245.644 173.215 C 246.239 172.761,247.226 171.924,247.837 171.356 C 248.449 170.788,249.192 170.155,249.489 169.950 C 249.786 169.745,250.454 169.188,250.973 168.712 C 251.921 167.844,253.129 166.851,256.637 164.060 C 257.676 163.233,258.738 162.380,258.998 162.164 C 260.653 160.787,262.634 159.292,262.806 159.290 C 262.918 159.289,263.381 158.935,263.837 158.503 C 269.597 153.042,278.790 152.173,283.655 156.630 C 283.979 156.926,284.308 157.168,284.388 157.168 C 284.467 157.168,284.999 157.779,285.570 158.525 C 288.723 162.648,289.152 166.725,286.911 171.276 C 283.901 177.391,276.155 178.950,271.388 174.402 C 266.255 169.502,269.202 160.826,276.001 160.826 C 281.767 160.826,284.787 167.066,280.901 170.952 C 279.087 172.766,276.958 170.795,278.108 168.365 C 279.177 166.105,278.415 164.720,276.102 164.720 C 273.868 164.720,272.802 165.889,272.802 168.339 C 272.802 174.564,281.984 174.763,283.894 168.579 C 286.101 161.433,279.287 155.757,271.622 158.357 C 269.452 159.093,269.146 159.282,265.605 162.070 C 265.475 162.172,264.256 163.102,262.895 164.137 C 261.535 165.171,260.023 166.379,259.535 166.820 C 259.048 167.261,258.279 167.874,257.827 168.181 C 257.375 168.488,256.493 169.211,255.866 169.788 C 255.240 170.365,254.308 171.156,253.795 171.546 C 253.281 171.935,251.853 173.105,250.619 174.144 C 249.386 175.184,246.840 177.285,244.960 178.814 C 241.309 181.783,240.916 182.107,240.000 182.903 C 239.676 183.185,238.933 183.802,238.350 184.274 C 237.767 184.746,236.918 185.470,236.462 185.882 C 236.007 186.294,235.131 187.014,234.516 187.483 C 233.901 187.952,233.105 188.610,232.746 188.945 C 232.388 189.281,231.723 189.834,231.268 190.176 C 230.814 190.517,230.177 191.041,229.853 191.340 C 227.049 193.922,223.062 196.536,220.059 197.761 C 216.289 199.299,209.536 199.309,206.541 197.782 C 206.318 197.668,205.552 197.283,204.838 196.925 C 203.709 196.360,202.132 195.339,201.770 194.939 C 201.705 194.867,201.058 194.310,200.333 193.701 C 198.412 192.090,195.960 188.231,195.524 186.136 C 195.351 185.302,194.690 185.267,194.690 186.091 C 194.690 186.920,192.987 190.364,192.042 191.446 C 191.616 191.933,191.014 192.659,190.702 193.060 C 189.377 194.765,184.763 197.645,182.419 198.231 C 177.643 199.426,175.084 199.308,170.147 197.661 C 168.285 197.040,164.040 194.392,161.732 192.412 C 161.104 191.873,158.944 190.074,156.932 188.415 C 154.920 186.756,153.221 185.328,153.156 185.242 C 152.906 184.910,147.528 180.541,144.942 178.569 C 144.463 178.204,143.434 177.331,142.655 176.630 C 141.876 175.930,140.852 175.060,140.379 174.699 C 139.905 174.337,138.312 173.027,136.839 171.786 C 135.365 170.546,133.257 168.800,132.153 167.906 C 131.050 167.012,130.094 166.215,130.029 166.136 C 129.921 166.002,128.757 165.098,124.257 161.652 C 121.208 159.318,120.954 159.146,120.000 158.769 C 115.219 156.882,111.234 157.416,108.475 160.315 C 105.029 163.934,105.151 168.392,108.795 172.031 C 109.850 173.085,112.456 173.459,114.353 172.829 C 118.734 171.376,118.828 164.720,114.468 164.720 C 111.986 164.720,111.136 166.042,112.166 168.298 C 113.859 172.008,110.189 172.895,108.300 169.233 C 105.611 164.017,113.545 157.948,118.013 161.803 C 118.218 161.979,118.503 162.124,118.646 162.124 C 119.841 162.124,121.534 165.798,121.534 168.390 C 121.534 177.956,107.755 180.303,103.509 171.460 C 102.166 168.665,101.652 163.740,102.604 162.788 C 102.762 162.631,102.891 162.324,102.891 162.107 C 102.891 161.281,103.858 159.583,105.128 158.179 C 108.649 154.289,113.256 152.847,118.249 154.073 M342.639 153.993 C 350.532 155.854,352.934 166.840,346.765 172.872 C 344.407 175.178,338.942 176.676,337.639 175.374 C 337.490 175.225,337.151 175.102,336.885 175.101 C 335.522 175.095,332.659 172.654,331.490 170.501 C 330.433 168.554,330.838 164.353,332.261 162.524 C 337.661 155.577,348.692 161.927,343.536 169.014 C 341.735 171.489,338.796 169.784,340.165 167.059 C 341.948 163.510,337.700 161.478,335.371 164.765 C 335.088 165.164,334.985 165.836,334.985 167.281 L 334.985 169.251 335.929 170.051 C 338.832 172.508,341.827 172.378,344.444 169.680 C 347.986 166.028,346.519 159.199,341.952 158.078 C 339.659 157.515,298.812 157.617,297.171 158.189 C 291.872 160.037,291.954 168.834,297.293 171.238 C 302.583 173.621,307.567 167.331,303.260 163.707 C 301.079 161.871,297.952 164.287,299.326 166.747 C 300.780 169.349,298.373 171.595,296.504 169.381 C 291.747 163.745,299.342 156.290,305.487 160.563 C 310.438 164.006,309.655 171.746,304.071 174.573 C 301.974 175.634,298.013 176.102,297.285 175.374 C 297.136 175.225,296.819 175.103,296.581 175.103 C 295.221 175.103,291.732 172.206,290.769 170.278 C 288.840 166.416,288.891 162.943,290.939 158.584 C 291.843 156.660,294.583 154.592,297.003 154.007 C 299.157 153.486,340.434 153.473,342.639 153.993 " stroke="none" fill="#fbfbfb" fill-rule="evenodd"></path><path id="path3" d="M113.982 89.240 C 107.461 91.266,104.533 95.001,104.548 101.275 C 104.560 105.813,105.883 108.936,109.226 112.317 C 110.480 113.585,111.624 114.877,111.768 115.188 C 111.911 115.498,112.206 116.160,112.422 116.659 L 112.815 117.565 114.048 117.450 C 114.726 117.386,115.581 117.256,115.949 117.161 C 117.180 116.842,119.337 117.692,120.616 119.000 C 124.717 123.194,123.108 130.737,118.112 130.737 C 113.211 130.737,113.164 124.622,118.053 123.094 C 118.723 122.884,118.528 122.002,117.623 121.149 C 116.753 120.328,113.333 119.922,112.920 120.590 C 112.682 120.976,111.622 120.872,111.622 120.463 C 111.622 118.686,108.945 116.106,107.100 116.106 C 105.753 116.106,105.580 116.325,106.087 117.392 C 106.549 118.366,106.466 120.070,105.862 122.006 C 103.674 129.024,106.728 134.533,113.982 136.654 C 115.421 137.074,121.531 137.070,122.950 136.648 C 130.038 134.536,133.224 130.501,133.207 123.658 C 133.193 118.115,131.247 114.418,126.484 110.888 C 125.970 110.507,125.362 109.675,124.891 108.710 C 123.998 106.879,123.533 106.658,121.782 107.230 C 117.834 108.522,115.067 105.552,115.099 100.059 C 115.125 95.538,117.907 93.203,120.869 95.216 C 123.643 97.101,122.562 101.475,119.324 101.475 C 118.642 101.475,118.127 102.196,118.337 102.857 C 118.752 104.163,121.187 104.631,124.473 104.036 C 124.829 103.972,125.065 104.225,125.497 105.133 C 126.283 106.783,127.067 107.526,128.499 107.976 C 130.648 108.652,131.009 108.234,130.178 106.030 C 129.817 105.073,129.828 104.955,130.505 102.608 C 131.986 97.476,131.084 94.071,127.552 91.447 C 126.411 90.600,125.790 90.273,123.333 89.223 C 121.694 88.523,116.259 88.533,113.982 89.240 M145.451 89.401 C 140.132 91.197,138.053 95.513,138.053 104.758 C 138.053 108.092,137.305 110.309,135.696 111.740 C 134.829 112.512,134.736 113.078,135.389 113.592 C 137.055 114.902,138.053 117.754,138.053 121.201 C 138.053 132.521,141.912 136.966,151.740 136.966 C 161.642 136.966,165.327 132.806,165.411 121.534 C 165.439 117.796,166.274 114.998,167.763 113.650 C 168.412 113.063,168.390 112.796,167.611 111.814 C 166.022 109.814,165.515 107.750,165.305 102.437 C 164.978 94.187,163.264 91.164,157.876 89.335 C 155.144 88.408,148.284 88.445,145.451 89.401 M269.853 89.092 C 269.333 89.279,268.765 89.434,268.590 89.436 C 268.415 89.438,267.884 89.607,267.410 89.811 C 261.900 92.188,259.962 95.199,259.981 101.357 C 259.997 106.590,260.875 108.679,264.677 112.527 C 266.225 114.093,266.972 115.048,267.265 115.831 C 267.894 117.513,267.989 117.581,269.484 117.415 C 274.129 116.897,276.252 118.102,277.630 122.037 C 279.255 126.677,277.189 130.755,273.225 130.730 C 268.819 130.702,268.530 124.635,272.866 123.204 C 273.949 122.846,273.810 121.716,272.581 120.888 C 271.670 120.274,268.912 120.127,268.079 120.647 C 267.469 121.028,266.869 120.673,266.549 119.740 C 265.797 117.552,264.115 116.106,262.320 116.106 C 261.017 116.106,260.912 116.266,261.374 117.556 C 261.758 118.631,261.675 120.530,261.190 121.755 C 259.227 126.713,260.619 131.588,264.865 134.617 C 265.694 135.209,266.449 135.693,266.543 135.693 C 266.637 135.693,267.048 135.837,267.457 136.012 C 269.276 136.793,270.408 136.964,273.746 136.964 C 277.085 136.964,278.217 136.793,280.036 136.012 C 280.445 135.837,280.835 135.693,280.904 135.693 C 280.972 135.693,281.669 135.311,282.453 134.844 C 290.833 129.853,290.890 118.333,282.568 111.585 C 281.249 110.515,280.726 109.896,280.129 108.695 C 279.247 106.921,278.693 106.662,277.026 107.242 C 272.763 108.727,269.584 104.458,270.443 98.402 C 270.878 95.336,273.432 93.724,275.863 94.982 C 278.806 96.503,277.872 101.475,274.643 101.475 C 273.313 101.475,273.109 102.797,274.300 103.705 C 275.261 104.438,278.205 104.576,279.426 103.945 C 280.073 103.610,280.137 103.614,280.265 104.004 C 280.951 106.080,282.093 107.435,283.589 107.945 C 285.708 108.667,286.444 108.265,285.663 106.813 C 285.156 105.872,285.270 104.065,285.993 101.593 C 287.651 95.923,285.378 92.114,278.613 89.223 C 277.165 88.604,271.444 88.519,269.853 89.092 M122.933 89.706 C 123.397 89.852,124.058 90.117,124.402 90.296 C 124.747 90.474,125.198 90.619,125.405 90.619 C 125.612 90.619,125.782 90.699,125.783 90.796 C 125.784 90.894,126.181 91.239,126.664 91.563 C 128.245 92.624,129.235 93.653,129.664 94.682 C 129.896 95.238,130.187 95.914,130.312 96.183 C 130.678 96.979,130.401 100.721,129.836 102.593 C 129.232 104.597,129.187 105.723,129.675 106.665 C 130.102 107.491,129.870 107.691,128.731 107.477 C 127.769 107.296,126.561 106.031,125.794 104.398 C 125.246 103.232,124.410 103.014,123.293 103.746 C 122.481 104.278,120.433 104.091,119.458 103.397 C 118.513 102.724,118.698 102.226,119.967 102.028 C 121.226 101.833,122.847 100.260,123.082 99.006 C 123.243 98.146,122.812 96.047,122.475 96.047 C 122.377 96.047,122.242 95.835,122.174 95.576 C 122.106 95.317,121.855 95.031,121.615 94.941 C 121.376 94.850,121.040 94.637,120.868 94.467 C 120.417 94.022,117.902 94.073,116.979 94.547 C 115.085 95.520,114.454 96.904,114.454 100.085 C 114.454 105.967,118.093 109.603,122.078 107.703 C 123.164 107.185,123.575 107.377,124.125 108.661 C 124.589 109.743,126.394 111.733,127.938 112.865 C 128.849 113.533,130.676 115.938,131.359 117.370 C 131.584 117.843,131.855 118.230,131.961 118.230 C 132.067 118.230,132.155 118.469,132.156 118.761 C 132.157 119.053,132.317 119.813,132.510 120.450 C 133.382 123.324,132.723 127.753,131.050 130.265 C 129.861 132.053,128.768 133.333,128.434 133.333 C 128.305 133.333,128.077 133.481,127.927 133.661 C 127.528 134.142,123.273 136.165,122.653 136.168 C 122.362 136.169,121.603 136.328,120.965 136.522 C 119.512 136.963,116.990 136.958,115.752 136.512 C 115.233 136.325,114.560 136.171,114.256 136.169 C 113.596 136.164,109.779 134.233,108.978 133.498 C 107.952 132.557,107.290 131.517,105.817 128.535 C 105.104 127.093,105.470 124.483,106.873 120.992 C 107.251 120.052,107.201 118.092,106.779 117.274 C 106.420 116.580,106.421 116.578,107.106 116.578 C 108.472 116.578,109.745 117.697,110.594 119.646 C 111.461 121.635,111.688 121.773,113.204 121.229 C 115.642 120.356,119.190 121.784,117.168 122.825 C 112.603 125.175,112.591 130.629,117.149 131.312 C 123.273 132.231,125.734 124.753,121.287 118.738 C 120.062 117.081,116.344 116.077,114.657 116.949 C 113.655 117.468,113.374 117.279,112.538 115.530 C 112.007 114.417,111.337 113.556,110.102 112.396 C 106.361 108.883,104.305 103.489,105.212 99.563 C 105.363 98.907,105.487 98.066,105.487 97.694 C 105.487 95.780,110.004 90.619,111.679 90.619 C 111.858 90.619,112.210 90.464,112.462 90.273 C 112.714 90.082,113.292 89.922,113.746 89.915 C 114.201 89.909,114.732 89.801,114.926 89.676 C 115.420 89.357,121.905 89.381,122.933 89.706 M157.665 89.833 C 162.391 90.830,164.583 95.077,164.952 103.953 C 165.153 108.764,165.560 110.386,166.999 112.096 L 167.615 112.828 167.022 113.464 C 165.556 115.037,165.145 116.645,164.959 121.534 C 164.773 126.425,164.135 129.257,162.655 131.756 C 162.363 132.249,162.124 132.733,162.124 132.832 C 162.124 133.057,159.135 135.221,158.824 135.221 C 158.698 135.221,158.248 135.433,157.823 135.692 C 157.398 135.951,156.785 136.165,156.460 136.167 C 156.136 136.169,155.349 136.328,154.712 136.522 C 154.075 136.715,152.738 136.873,151.740 136.873 C 150.743 136.873,149.406 136.715,148.769 136.522 C 148.132 136.328,147.361 136.169,147.055 136.168 C 146.328 136.164,143.533 134.688,142.381 133.699 C 140.362 131.964,139.110 128.320,138.767 123.186 C 138.452 118.464,138.319 117.299,138.016 116.578 C 137.364 115.032,136.941 114.334,136.214 113.606 L 135.424 112.817 136.267 112.077 C 136.730 111.670,137.109 111.189,137.109 111.008 C 137.109 110.827,137.192 110.678,137.293 110.678 C 137.956 110.678,138.462 107.865,138.780 102.419 C 139.165 95.818,141.205 91.200,144.051 90.485 C 144.386 90.401,144.661 90.238,144.661 90.122 C 144.661 90.006,145.059 89.910,145.546 89.908 C 146.032 89.906,146.590 89.799,146.785 89.670 C 147.227 89.378,156.140 89.511,157.665 89.833 M171.799 89.863 C 170.756 90.438,170.620 91.169,171.400 92.002 C 175.151 96.008,175.217 107.260,171.517 111.915 L 171.003 112.561 171.753 113.567 C 173.586 116.024,174.153 118.579,174.147 124.366 C 174.141 129.819,173.542 131.908,171.566 133.369 C 170.011 134.519,171.091 135.694,173.703 135.692 C 175.558 135.691,176.556 135.298,177.581 134.162 C 178.353 133.307,178.805 133.275,179.347 134.035 C 180.594 135.786,182.991 136.234,184.842 135.061 C 186.401 134.073,187.945 134.039,189.640 134.958 C 192.474 136.493,194.250 134.463,192.337 131.876 C 191.737 131.065,191.734 130.616,192.324 129.866 C 193.781 128.013,192.345 124.778,190.816 126.468 C 189.913 127.466,188.236 127.927,185.777 127.855 L 183.481 127.788 183.363 126.844 C 182.719 121.689,184.066 114.486,185.869 113.440 C 186.386 113.140,186.250 112.351,185.521 111.420 C 183.792 109.214,183.503 107.865,183.491 101.947 C 183.478 95.904,183.748 94.882,186.167 91.787 C 188.159 89.239,182.207 88.526,179.574 90.998 C 178.864 91.664,178.578 91.700,178.144 91.177 C 176.859 89.628,173.490 88.930,171.799 89.863 M196.887 89.678 C 195.512 90.232,195.485 90.942,196.771 92.660 C 198.644 95.161,198.820 95.969,198.820 102.065 C 198.820 107.983,198.634 108.914,197.021 111.081 C 195.916 112.566,195.897 112.856,196.837 113.927 C 198.516 115.839,199.065 118.782,198.873 124.838 C 198.736 129.182,198.295 130.694,196.537 132.856 C 196.170 133.308,195.870 133.900,195.870 134.172 C 195.870 136.319,201.192 136.260,202.753 134.096 C 203.329 133.296,203.617 133.298,204.533 134.110 C 206.212 135.597,206.454 135.693,208.507 135.693 C 211.545 135.693,212.151 134.743,210.500 132.571 C 207.303 128.367,207.310 117.706,210.513 113.701 C 211.297 112.720,211.375 112.289,210.844 111.849 C 207.313 108.919,207.163 96.901,210.602 92.422 C 211.655 91.050,211.606 90.390,210.409 89.822 C 208.688 89.005,205.909 89.543,204.620 90.942 C 203.909 91.714,203.472 91.724,202.678 90.988 C 201.163 89.582,198.576 88.997,196.887 89.678 M213.805 89.912 C 213.078 90.639,213.151 92.491,213.945 93.434 L 214.557 94.161 213.945 95.205 C 212.487 97.693,213.576 100.200,215.462 98.697 C 216.920 97.536,217.520 97.345,219.721 97.345 C 222.333 97.345,222.170 97.079,222.258 101.491 C 222.364 106.761,221.834 109.245,220.139 111.420 C 219.448 112.307,219.277 113.128,219.725 113.404 C 221.291 114.372,222.301 118.283,222.301 123.375 C 222.301 128.299,221.804 130.257,219.914 132.792 C 218.835 134.239,218.818 134.356,219.576 135.114 C 221.025 136.562,225.164 135.702,226.672 133.639 C 226.939 133.276,227.096 133.355,228.311 134.465 L 229.655 135.693 231.652 135.693 C 234.588 135.693,235.493 134.765,234.102 133.181 C 230.545 129.130,230.447 116.444,233.950 113.537 C 234.539 113.048,234.423 112.514,233.389 110.965 C 231.588 108.268,230.526 98.239,231.961 97.471 C 233.245 96.784,236.906 97.511,238.373 98.745 C 240.139 100.232,241.334 98.158,240.130 95.696 L 239.493 94.395 240.138 93.078 C 241.542 90.208,240.387 89.106,237.143 90.220 L 235.032 90.944 233.799 90.522 C 233.121 90.290,232.206 89.939,231.766 89.743 C 230.489 89.173,228.819 89.441,227.861 90.370 L 227.076 91.130 225.932 90.257 C 224.737 89.345,222.999 89.181,221.690 89.857 C 219.236 91.124,218.799 91.114,215.383 89.712 C 214.490 89.346,214.354 89.363,213.805 89.912 M242.655 89.909 C 241.680 90.503,241.663 91.182,242.594 92.313 C 245.762 96.155,245.971 107.815,242.934 111.294 C 242.201 112.135,241.847 113.274,242.320 113.274 C 242.671 113.274,243.899 115.250,244.374 116.578 C 245.054 118.482,245.066 127.595,244.391 129.558 C 243.970 130.782,242.566 133.178,242.101 133.466 C 241.701 133.712,241.887 134.666,242.434 135.180 C 243.736 136.403,246.895 135.851,248.791 134.069 L 249.676 133.238 250.560 134.076 C 252.131 135.564,252.447 135.693,254.521 135.693 C 256.116 135.693,256.515 135.614,256.947 135.212 C 257.467 134.727,257.644 133.709,257.250 133.466 C 256.845 133.215,255.422 130.851,254.968 129.676 C 254.565 128.630,254.514 127.866,254.516 122.950 C 254.518 116.767,254.576 116.491,256.413 113.934 C 257.416 112.539,257.416 112.508,256.410 111.332 C 254.797 109.449,254.513 108.008,254.513 101.711 L 254.513 96.165 255.165 94.838 C 255.524 94.109,256.194 93.017,256.656 92.413 C 258.912 89.459,253.911 88.101,250.807 90.826 C 249.798 91.712,249.530 91.734,248.744 90.998 C 247.067 89.423,244.272 88.923,242.655 89.909 M278.213 89.710 C 284.236 91.640,287.210 96.822,285.238 101.947 C 284.616 103.562,284.461 105.747,284.905 106.636 C 285.342 107.512,285.144 107.687,283.957 107.473 C 282.776 107.260,282.639 107.130,281.492 105.113 C 280.347 103.101,280.279 103.058,279.045 103.551 C 277.441 104.193,275.531 104.077,274.754 103.291 C 274.019 102.547,274.377 101.947,275.557 101.947 C 276.395 101.947,278.154 100.124,278.355 99.047 C 278.636 97.544,277.536 94.867,276.639 94.867 C 276.507 94.867,276.268 94.708,276.106 94.513 C 275.349 93.601,271.831 94.239,270.914 95.455 C 269.060 97.914,269.484 104.029,271.675 106.431 C 273.330 108.245,275.026 108.695,277.001 107.845 C 278.426 107.232,278.830 107.325,279.317 108.374 C 280.127 110.119,281.013 111.347,281.746 111.738 C 283.057 112.438,285.969 115.736,286.645 117.286 C 287.549 119.357,287.596 119.535,288.057 122.679 C 288.690 126.984,285.502 133.085,281.888 134.487 C 281.758 134.537,280.909 134.935,280.001 135.372 C 279.093 135.808,278.137 136.166,277.877 136.168 C 277.617 136.169,276.883 136.328,276.246 136.522 C 274.792 136.963,272.270 136.958,271.032 136.512 C 270.513 136.325,269.847 136.171,269.551 136.169 C 268.908 136.164,265.945 134.733,264.781 133.865 C 261.643 131.523,260.277 127.340,261.371 123.422 C 262.289 120.134,262.419 119.581,262.419 118.955 C 262.419 118.588,262.258 117.903,262.062 117.433 L 261.705 116.578 262.534 116.578 C 263.645 116.578,265.069 118.000,265.988 120.027 C 266.735 121.675,267.269 121.915,268.555 121.180 C 269.528 120.624,271.146 120.737,272.171 121.434 C 273.252 122.168,273.204 122.401,271.812 123.177 C 268.410 125.072,267.973 128.482,270.851 130.677 C 272.956 132.283,276.842 131.049,278.249 128.328 C 279.969 125.003,277.254 117.324,274.342 117.279 C 274.079 117.275,273.658 117.115,273.406 116.925 C 272.804 116.469,270.844 116.480,269.947 116.944 C 269.146 117.359,268.319 117.205,268.319 116.642 C 268.319 115.851,267.005 114.027,265.121 112.205 C 259.590 106.852,258.630 97.210,263.223 93.131 C 265.158 91.412,267.965 89.916,269.270 89.908 C 269.591 89.906,270.012 89.801,270.206 89.676 C 270.705 89.353,277.188 89.381,278.213 89.710 M175.997 90.313 C 176.349 90.534,177.086 91.118,177.635 91.611 C 178.821 92.677,178.871 92.684,179.605 91.885 C 180.970 90.401,181.931 89.911,183.457 89.919 C 185.996 89.932,186.244 90.539,184.669 92.887 C 182.894 95.533,182.770 96.131,182.789 101.947 C 182.800 105.290,182.906 107.343,183.099 107.965 C 183.563 109.453,184.124 110.678,184.343 110.678 C 184.453 110.678,184.543 110.812,184.543 110.976 C 184.543 111.139,184.817 111.569,185.152 111.931 L 185.762 112.588 185.102 113.462 C 184.739 113.943,184.313 114.469,184.155 114.631 C 183.076 115.741,182.010 124.870,182.677 127.286 C 183.197 129.170,188.914 129.087,190.747 127.168 C 191.396 126.487,192.089 126.592,192.119 127.375 C 192.170 128.695,192.043 129.450,191.704 129.829 C 191.214 130.377,191.235 131.595,191.744 132.157 C 192.026 132.468,192.173 132.998,192.173 133.698 C 192.173 135.277,191.892 135.413,190.294 134.607 C 188.422 133.662,185.902 133.655,184.307 134.592 C 183.119 135.289,181.695 135.417,181.239 134.867 C 181.077 134.673,180.799 134.513,180.620 134.513 C 180.441 134.513,180.295 134.418,180.295 134.302 C 180.295 134.186,179.987 133.761,179.610 133.358 C 178.811 132.503,178.436 132.562,177.137 133.746 C 176.674 134.168,176.200 134.513,176.082 134.513 C 175.965 134.513,175.737 134.673,175.575 134.867 C 175.121 135.415,172.710 135.345,172.003 134.764 L 171.445 134.306 172.625 133.165 C 174.329 131.518,174.441 131.028,174.565 124.745 C 174.700 117.840,174.191 115.189,172.412 113.528 C 171.639 112.806,171.641 112.778,172.579 111.549 C 173.008 110.987,173.470 110.216,173.606 109.836 C 173.741 109.456,173.992 108.773,174.162 108.319 C 174.365 107.780,174.508 105.865,174.574 102.807 C 174.710 96.475,174.114 93.909,172.045 91.927 C 171.650 91.549,171.327 91.124,171.327 90.984 C 171.327 90.017,174.741 89.526,175.997 90.313 M200.846 90.324 C 201.267 90.552,201.924 91.083,202.305 91.504 C 203.209 92.504,203.897 92.488,204.909 91.445 C 205.350 90.991,205.820 90.619,205.954 90.619 C 206.087 90.619,206.328 90.460,206.490 90.265 C 206.912 89.757,209.397 89.790,210.288 90.316 C 211.150 90.826,211.147 91.073,210.269 91.914 C 208.319 93.782,207.823 95.753,207.834 101.593 C 207.844 106.766,208.285 110.018,209.067 110.678 C 210.297 111.718,210.632 112.789,209.934 113.451 C 208.330 114.971,207.832 117.225,207.836 122.950 C 207.840 129.481,208.264 131.175,210.477 133.500 C 211.106 134.160,211.101 134.397,210.449 134.854 C 209.027 135.850,205.980 135.021,204.404 133.209 C 203.764 132.472,203.093 132.590,202.297 133.579 C 200.997 135.195,198.231 135.813,196.920 134.782 L 196.361 134.342 197.162 133.071 C 199.263 129.736,199.626 128.321,199.638 123.441 C 199.650 118.121,199.151 115.870,197.480 113.712 C 196.658 112.651,196.658 112.617,197.497 111.458 C 199.231 109.064,199.646 107.278,199.646 102.202 C 199.646 96.307,199.305 95.126,196.460 91.164 C 195.715 90.127,199.230 89.453,200.846 90.324 M215.325 90.273 C 215.577 90.464,216.007 90.619,216.281 90.619 C 216.555 90.619,216.884 90.725,217.012 90.853 C 217.451 91.291,219.353 91.402,220.202 91.040 C 223.516 89.623,224.362 89.590,225.658 90.830 C 226.903 92.020,226.980 92.021,228.229 90.855 C 229.345 89.815,230.695 89.582,231.609 90.273 C 231.860 90.464,232.242 90.619,232.457 90.619 C 232.672 90.619,233.193 90.792,233.615 91.002 C 234.426 91.407,236.328 91.318,236.793 90.853 C 236.921 90.725,237.223 90.619,237.463 90.619 C 237.703 90.619,238.206 90.461,238.581 90.267 C 239.970 89.549,240.523 91.392,239.410 93.030 C 238.675 94.112,238.674 94.508,239.404 95.693 C 240.084 96.797,240.189 98.113,239.615 98.334 C 239.265 98.468,238.691 98.254,236.896 97.318 C 235.813 96.753,231.587 96.868,231.265 97.470 C 229.890 100.038,231.266 109.985,233.252 111.841 C 234.050 112.586,234.034 112.683,232.928 113.883 C 232.414 114.441,231.927 115.197,231.848 115.561 C 231.769 115.926,231.612 116.437,231.500 116.696 C 230.718 118.505,230.726 128.301,231.510 129.769 C 231.621 129.977,231.771 130.413,231.844 130.737 C 231.917 131.062,232.375 131.847,232.861 132.483 C 234.317 134.383,234.274 134.261,233.661 134.764 C 232.321 135.864,229.505 135.129,227.679 133.203 C 226.979 132.465,226.935 132.472,226.023 133.476 C 223.984 135.720,219.219 135.977,219.978 133.801 C 220.113 133.414,220.297 133.097,220.386 133.097 C 220.645 133.097,222.001 130.725,222.409 129.558 C 222.887 128.192,223.128 122.099,222.806 119.528 C 222.362 115.985,222.163 115.417,220.782 113.765 C 219.907 112.717,219.938 112.373,221.008 111.243 C 221.392 110.838,222.232 109.021,222.578 107.847 C 223.053 106.234,223.020 97.528,222.537 97.222 C 222.342 97.099,221.031 96.997,219.623 96.995 C 216.994 96.991,216.532 97.115,215.011 98.231 C 213.786 99.131,213.299 97.109,214.395 95.672 C 214.720 95.247,214.985 94.672,214.985 94.395 C 214.985 94.118,214.720 93.544,214.395 93.118 C 213.199 91.550,213.955 89.237,215.325 90.273 M246.880 90.324 C 247.311 90.552,247.970 91.083,248.345 91.504 C 249.169 92.431,250.044 92.509,250.730 91.719 C 252.182 90.045,254.752 89.398,256.306 90.316 C 257.162 90.822,257.161 91.010,256.300 91.906 C 254.384 93.898,253.846 96.015,253.838 101.593 C 253.829 107.577,254.376 110.189,255.951 111.682 C 256.695 112.386,256.664 112.676,255.733 113.764 C 252.731 117.271,252.995 129.558,256.149 133.048 C 257.133 134.138,257.172 134.360,256.467 134.854 C 255.033 135.858,252.232 135.105,250.516 133.253 C 249.835 132.519,249.104 132.567,248.530 133.384 C 246.866 135.748,241.429 135.968,242.884 133.612 C 245.243 129.794,245.879 127.655,245.893 123.490 C 245.907 119.050,245.198 116.181,243.439 113.563 L 242.761 112.555 243.597 111.322 C 244.879 109.431,245.109 108.849,245.519 106.448 C 246.527 100.555,245.450 94.462,242.928 91.786 C 241.524 90.297,244.642 89.144,246.880 90.324 M149.594 94.552 C 148.162 95.441,147.727 97.241,147.733 102.253 C 147.737 105.854,148.123 109.348,148.631 110.376 C 148.745 110.607,149.081 111.282,149.377 111.875 L 149.915 112.955 149.430 113.881 C 147.340 117.879,146.975 126.872,148.792 129.645 C 150.087 131.622,154.280 131.442,154.959 129.381 C 155.034 129.154,155.236 128.647,155.409 128.254 C 156.132 126.615,156.036 117.711,155.288 116.963 C 155.154 116.829,155.044 116.416,155.044 116.045 C 155.044 115.675,154.779 114.896,154.454 114.314 C 154.130 113.733,153.864 113.106,153.864 112.920 C 153.864 112.735,154.130 112.108,154.454 111.526 C 154.779 110.945,155.044 110.166,155.044 109.795 C 155.044 109.424,155.157 109.008,155.294 108.871 C 156.085 108.080,156.098 97.242,155.309 96.454 C 155.164 96.308,155.044 96.003,155.044 95.776 C 155.044 94.419,151.199 93.555,149.594 94.552 M153.873 95.280 C 155.875 97.074,155.785 108.478,153.746 111.483 C 152.990 112.596,153.004 112.909,153.877 114.521 C 156.290 118.976,155.679 129.411,152.957 130.227 C 149.270 131.331,148.359 129.736,148.495 122.413 C 148.598 116.829,148.744 116.040,150.067 113.900 C 150.703 112.870,150.692 112.726,149.885 111.547 C 147.801 108.505,147.739 96.856,149.798 95.163 C 150.793 94.345,152.897 94.406,153.873 95.280 " stroke="none" fill="#fc9034" fill-rule="evenodd"></path><path id="path4" d="M172.231 36.678 C 169.258 37.565,164.436 40.169,162.448 41.962 C 162.205 42.181,161.422 42.803,160.708 43.344 C 159.994 43.885,159.101 44.602,158.724 44.937 C 158.347 45.272,157.968 45.546,157.882 45.546 C 157.796 45.546,157.096 46.141,156.326 46.869 C 155.556 47.596,154.544 48.476,154.077 48.823 C 152.989 49.632,151.236 51.101,148.688 53.339 C 147.576 54.316,145.658 55.955,144.425 56.982 C 143.192 58.009,142.130 58.914,142.065 58.993 C 142.000 59.073,140.779 60.080,139.351 61.231 C 137.923 62.383,136.325 63.705,135.799 64.170 C 135.273 64.634,133.588 66.024,132.056 67.257 C 130.523 68.490,129.079 69.658,128.847 69.853 C 128.615 70.047,127.665 70.791,126.735 71.504 C 125.806 72.218,124.404 73.309,123.621 73.929 C 120.545 76.362,116.197 77.760,113.458 77.197 C 106.525 75.772,103.733 68.960,108.025 63.946 C 109.385 62.357,113.264 61.093,113.853 62.047 C 113.927 62.167,114.289 62.331,114.657 62.412 C 117.609 63.060,118.682 67.894,116.264 69.646 C 113.747 71.469,110.852 69.635,112.057 66.981 C 112.697 65.571,112.722 65.360,112.356 64.481 C 111.075 61.411,107.006 65.756,107.810 69.335 C 108.793 73.709,115.185 75.885,118.544 72.989 C 124.881 67.526,120.843 58.072,112.167 58.057 C 111.104 58.055,110.169 58.159,110.088 58.289 C 110.008 58.419,109.732 58.525,109.475 58.525 C 108.054 58.525,104.504 61.489,103.586 63.443 C 100.514 69.979,102.735 76.738,108.965 79.809 C 114.719 82.645,122.501 80.729,128.685 74.954 C 129.048 74.614,129.410 74.336,129.487 74.336 C 129.604 74.336,133.895 70.957,134.277 70.564 C 134.404 70.434,136.780 68.420,137.920 67.476 C 138.301 67.161,139.363 66.265,140.280 65.486 C 141.197 64.708,142.372 63.753,142.891 63.365 C 143.410 62.977,144.259 62.262,144.779 61.776 C 145.298 61.290,146.785 60.030,148.083 58.974 C 149.381 57.919,151.006 56.574,151.695 55.985 C 152.383 55.396,153.233 54.693,153.582 54.422 C 153.932 54.151,154.537 53.644,154.926 53.295 C 156.017 52.318,156.634 51.793,157.696 50.936 C 158.234 50.502,159.125 49.760,159.676 49.287 C 160.228 48.814,161.350 47.918,162.169 47.297 C 162.988 46.675,164.040 45.841,164.507 45.443 C 167.114 43.221,170.314 41.276,172.153 40.794 C 176.150 39.749,178.575 39.706,181.593 40.629 C 185.805 41.918,190.236 46.275,191.031 49.912 C 191.655 52.765,191.701 53.331,191.416 54.674 C 191.256 55.429,191.063 56.416,190.988 56.866 C 190.687 58.663,187.971 62.228,186.030 63.374 C 177.778 68.244,168.217 58.972,174.339 52.035 C 178.136 47.734,185.522 52.318,182.340 57.001 C 180.530 59.664,182.889 61.901,185.129 59.646 C 191.290 53.441,182.458 43.389,174.351 47.380 C 165.747 51.616,166.990 63.980,176.401 67.766 C 182.855 70.363,190.301 67.245,193.542 60.589 C 193.937 59.778,194.356 58.931,194.475 58.705 C 194.593 58.480,194.690 57.975,194.690 57.584 C 194.690 57.193,194.775 56.873,194.879 56.873 C 195.211 56.873,195.634 57.425,195.634 57.858 C 195.634 61.499,201.385 67.126,206.302 68.296 C 219.980 71.551,228.155 52.609,215.465 47.068 C 207.463 43.574,199.093 54.348,205.464 59.941 C 207.874 62.057,209.764 59.384,207.782 56.661 C 205.077 52.948,211.696 48.155,215.184 51.301 C 222.536 57.932,213.684 68.305,204.663 63.630 C 197.533 59.935,197.059 49.185,203.776 43.514 C 209.073 39.041,218.102 38.841,222.798 43.091 C 223.017 43.289,223.620 43.737,224.137 44.085 C 225.001 44.669,227.723 46.845,231.520 49.989 C 232.355 50.681,233.251 51.414,233.510 51.618 C 233.770 51.822,234.472 52.425,235.070 52.956 C 237.102 54.764,238.625 56.045,240.007 57.109 C 240.765 57.693,242.621 59.233,244.131 60.531 C 247.138 63.115,249.960 65.457,252.153 67.187 C 252.932 67.801,253.994 68.696,254.513 69.177 C 255.032 69.657,255.776 70.294,256.165 70.592 C 256.555 70.890,256.926 71.199,256.991 71.278 C 257.056 71.357,258.012 72.102,259.115 72.935 C 260.218 73.767,261.333 74.648,261.593 74.893 C 262.069 75.342,264.985 77.507,265.848 78.052 C 270.364 80.904,274.462 81.740,278.998 80.735 C 285.411 79.313,289.956 71.588,287.773 65.817 C 286.304 61.930,283.100 58.525,280.913 58.525 C 280.621 58.525,280.316 58.419,280.236 58.289 C 280.156 58.159,279.147 58.053,277.994 58.053 C 276.841 58.053,275.832 58.159,275.752 58.289 C 275.672 58.419,275.397 58.525,275.140 58.525 C 274.327 58.525,272.317 59.700,271.247 60.802 C 265.531 66.683,270.623 76.281,278.209 73.927 C 282.529 72.586,284.093 66.985,280.924 64.203 C 278.938 62.459,276.911 64.232,278.103 66.670 C 278.895 68.288,278.860 68.721,277.872 69.589 C 274.620 72.444,270.716 66.986,273.748 63.824 C 279.653 57.665,288.118 67.494,282.578 74.078 C 279.308 77.964,273.361 78.284,268.166 74.854 C 266.592 73.815,262.916 71.114,262.655 70.805 C 262.590 70.728,261.422 69.772,260.059 68.680 C 256.892 66.142,255.252 64.811,255.103 64.657 C 255.038 64.590,254.150 63.846,253.130 63.005 C 252.109 62.163,249.667 60.115,247.702 58.452 C 242.250 53.838,242.029 53.649,239.546 51.495 C 238.842 50.883,237.737 49.987,237.090 49.503 C 236.444 49.019,235.427 48.163,234.831 47.601 C 226.568 39.818,219.524 36.123,212.929 36.112 C 209.899 36.106,209.562 36.159,206.732 37.086 C 202.226 38.562,196.486 44.622,195.533 48.909 C 195.355 49.714,194.690 49.783,194.690 48.996 C 194.690 46.528,190.933 41.473,187.449 39.254 C 187.084 39.021,186.732 38.775,186.667 38.708 C 186.270 38.292,183.280 36.816,182.825 36.811 C 182.666 36.809,182.112 36.654,181.593 36.467 C 179.985 35.888,174.464 36.012,172.231 36.678 M182.773 37.405 C 188.925 39.526,193.980 45.322,194.590 50.955 L 194.754 52.471 195.179 51.663 C 195.412 51.219,195.733 50.324,195.890 49.676 C 197.666 42.369,205.216 36.578,212.966 36.578 C 219.297 36.578,223.889 38.968,233.848 47.446 C 235.609 48.946,237.794 50.778,238.702 51.519 C 239.611 52.259,241.788 54.092,243.540 55.591 C 246.410 58.047,252.568 63.215,258.643 68.268 C 270.425 78.067,275.628 79.872,281.120 76.066 C 287.398 71.716,285.212 61.528,277.994 61.490 C 272.859 61.463,270.000 67.348,273.808 70.106 C 276.752 72.239,280.344 69.673,278.702 66.610 C 277.598 64.549,279.112 62.995,280.655 64.605 C 283.952 68.047,281.051 73.706,275.988 73.706 C 269.695 73.706,266.907 65.486,271.696 61.051 C 277.921 55.288,287.670 60.205,287.670 69.108 C 287.670 79.234,275.763 83.996,266.195 77.696 C 265.481 77.226,263.463 75.718,261.711 74.344 C 259.959 72.970,258.188 71.583,257.776 71.262 C 256.568 70.322,246.395 61.810,245.089 60.647 C 244.432 60.063,242.248 58.237,240.236 56.590 C 238.224 54.943,234.706 52.023,232.418 50.102 C 222.248 41.561,220.040 40.230,214.691 39.419 C 210.208 38.739,204.181 41.369,201.199 45.307 C 193.540 55.419,202.878 69.174,213.938 64.070 C 218.837 61.810,219.834 54.943,215.803 51.227 C 211.214 46.997,203.792 52.876,207.763 57.595 C 208.530 58.506,208.533 58.863,207.784 59.612 C 206.407 60.990,204.470 58.904,203.771 55.291 C 203.220 52.440,205.935 48.510,209.130 47.534 C 220.283 44.129,226.137 59.771,216.047 66.016 C 213.411 67.648,212.615 67.849,208.850 67.835 C 202.479 67.811,197.734 63.845,195.981 57.081 C 195.769 56.265,195.409 55.232,195.180 54.785 L 194.763 53.972 194.600 55.600 C 193.494 66.701,179.907 72.188,172.392 64.569 C 165.905 57.992,169.757 47.015,178.525 47.095 C 185.155 47.155,189.071 54.749,184.791 59.248 C 182.770 61.373,181.279 59.518,182.987 57.002 C 186.168 52.314,178.797 47.286,174.522 51.227 C 168.839 56.465,173.051 65.133,181.278 65.133 C 190.513 65.133,195.376 52.880,189.167 45.257 C 185.906 41.253,180.074 38.715,175.732 39.408 C 169.877 40.344,168.290 41.379,152.802 54.368 C 151.894 55.130,150.368 56.403,149.411 57.198 C 148.455 57.993,146.224 59.864,144.455 61.357 C 142.686 62.850,140.707 64.492,140.059 65.007 C 139.410 65.523,137.499 67.116,135.811 68.547 C 124.012 78.560,120.672 80.477,114.988 80.501 C 107.905 80.531,102.655 75.697,102.655 69.145 C 102.655 62.694,108.199 57.581,114.002 58.678 C 123.200 60.417,123.391 73.730,114.218 73.707 C 109.249 73.695,106.249 67.512,109.774 64.546 C 111.515 63.081,112.761 64.670,111.622 66.903 C 109.889 70.303,114.795 72.438,117.354 69.397 C 120.751 65.360,114.552 59.439,109.617 62.006 C 101.811 66.066,105.743 77.716,114.926 77.738 C 119.915 77.750,122.862 75.800,141.232 60.338 C 141.877 59.795,143.789 58.196,145.480 56.784 C 147.171 55.372,149.086 53.723,149.735 53.119 C 150.383 52.515,151.445 51.600,152.094 51.087 C 152.743 50.573,154.661 48.983,156.356 47.554 C 164.913 40.339,167.864 38.477,172.979 37.068 C 175.622 36.340,180.134 36.495,182.773 37.405 M47.906 59.678 C 37.496 63.043,37.345 77.656,47.686 80.914 C 48.801 81.266,92.881 81.294,93.097 80.944 C 93.178 80.814,93.529 80.707,93.878 80.706 C 97.136 80.694,100.987 75.182,100.999 70.513 C 101.030 58.632,84.930 54.927,81.786 66.092 C 80.812 69.552,83.379 75.044,85.971 75.044 C 86.139 75.044,86.395 75.162,86.539 75.306 C 87.484 76.251,91.294 75.604,93.165 74.181 C 95.809 72.170,96.078 68.069,93.731 65.546 C 92.001 63.686,89.440 65.945,90.855 68.083 C 92.045 69.879,90.984 71.740,88.770 71.740 C 85.692 71.740,84.243 67.172,86.608 64.926 C 89.948 61.754,95.561 63.597,96.716 68.246 C 97.181 70.117,96.859 74.100,96.243 74.100 C 96.135 74.100,96.047 74.251,96.047 74.434 C 96.047 75.050,93.935 76.659,92.627 77.040 C 90.899 77.542,50.396 77.573,48.500 77.074 C 45.879 76.384,43.768 73.256,43.935 70.309 C 44.075 67.824,46.345 63.953,47.662 63.953 C 47.874 63.953,48.174 63.826,48.329 63.671 C 49.433 62.567,53.982 63.859,54.914 65.541 C 56.880 69.093,54.088 73.022,50.772 71.369 C 49.413 70.691,49.228 69.708,50.147 68.061 C 50.878 66.752,50.878 66.659,50.135 65.686 C 47.801 62.626,44.332 68.828,46.402 72.360 C 50.094 78.661,59.469 75.503,59.469 67.959 C 59.469 62.331,53.320 57.928,47.906 59.678 M296.867 59.779 C 290.615 61.874,287.709 68.640,290.311 75.044 C 290.969 76.662,291.416 77.307,292.735 78.541 C 294.094 79.811,294.945 80.297,296.890 80.913 C 298.060 81.284,341.430 81.292,342.638 80.922 C 349.679 78.762,352.352 71.246,348.571 64.237 C 347.827 62.858,346.355 61.357,345.748 61.357 C 345.604 61.357,345.487 61.270,345.487 61.163 C 345.487 60.888,343.714 60.050,342.199 59.607 C 333.907 57.186,327.176 67.633,333.178 73.608 C 337.309 77.722,344.779 75.084,344.779 69.511 C 344.779 66.423,341.887 63.744,340.371 65.428 C 339.577 66.311,339.550 66.739,340.208 68.082 C 341.884 71.505,337.113 73.457,335.305 70.087 C 333.576 66.862,336.076 63.344,340.059 63.398 C 347.427 63.499,348.855 75.215,341.729 77.098 C 340.113 77.525,299.345 77.506,297.718 77.077 C 292.997 75.834,291.687 69.065,295.416 65.179 C 299.537 60.883,306.842 64.733,304.323 69.873 C 303.637 71.274,302.955 71.740,301.593 71.740 C 299.388 71.740,298.322 70.094,299.344 68.266 C 300.604 66.011,298.889 63.889,296.921 65.267 C 291.674 68.942,297.636 77.729,303.771 75.364 C 313.863 71.472,307.156 56.331,296.867 59.779 M52.389 60.188 C 58.299 61.500,60.941 68.144,57.354 72.673 C 52.581 78.699,42.768 72.517,47.355 66.374 C 48.976 64.203,50.753 65.848,49.526 68.383 C 47.818 71.912,53.339 73.870,55.435 70.479 C 57.506 67.128,55.059 63.152,50.729 62.831 C 44.453 62.366,40.979 71.406,45.641 76.068 C 47.456 77.882,45.625 77.758,70.560 77.758 L 92.861 77.758 93.821 77.244 C 100.452 73.695,97.667 62.237,90.317 62.827 C 85.270 63.232,82.918 69.086,86.789 71.605 C 89.681 73.485,93.038 71.091,91.563 68.201 C 90.511 66.138,91.943 64.326,93.383 65.900 C 97.176 70.048,93.030 76.278,87.358 74.954 C 85.776 74.585,85.577 74.474,84.169 73.169 C 79.984 69.291,82.374 61.859,88.315 60.277 C 94.814 58.547,100.166 63.083,100.171 70.324 C 100.175 75.242,98.721 77.870,94.943 79.777 L 93.333 80.590 70.442 80.590 L 47.552 80.590 46.107 79.806 C 35.852 74.243,41.152 57.694,52.389 60.188 M302.009 60.277 C 309.830 62.359,310.439 73.273,302.832 75.040 C 297.632 76.247,293.255 69.890,296.741 66.193 C 298.284 64.558,300.231 66.271,298.872 68.069 C 296.962 70.593,300.944 73.486,303.640 71.533 C 307.739 68.564,304.639 62.440,299.234 62.828 C 292.291 63.326,290.303 73.887,296.519 77.248 L 297.463 77.758 319.646 77.758 C 338.186 77.758,341.965 77.703,342.655 77.425 C 349.483 74.675,347.391 62.772,340.080 62.773 C 334.792 62.774,332.008 69.171,336.175 71.746 C 338.983 73.482,342.693 70.427,340.767 67.965 C 339.543 66.400,341.207 64.542,342.637 65.875 C 346.581 69.549,342.299 76.215,336.771 75.008 C 327.862 73.062,330.725 59.947,340.059 59.947 C 350.327 59.947,353.447 74.800,344.229 79.800 L 342.773 80.590 319.882 80.590 L 296.991 80.590 295.575 79.891 C 284.924 74.636,290.628 57.248,302.009 60.277 M30.459 83.071 C 28.540 83.523,28.241 85.595,29.966 86.487 C 30.579 86.804,48.902 86.844,195.234 86.844 L 359.812 86.844 360.614 86.305 C 362.057 85.336,361.688 83.565,359.943 83.081 C 358.871 82.783,31.722 82.773,30.459 83.071 M360.516 84.053 C 361.185 84.682,361.202 85.051,360.590 85.664 C 359.983 86.271,30.698 86.429,29.868 85.822 C 29.310 85.414,29.318 84.317,29.882 83.890 C 30.263 83.601,53.147 83.554,195.147 83.547 L 359.970 83.540 360.516 84.053 M114.986 100.177 C 114.988 100.696,115.037 100.881,115.093 100.587 C 115.150 100.294,115.147 99.869,115.088 99.643 C 115.029 99.418,114.983 99.658,114.986 100.177 M270.266 100.177 C 270.269 100.696,270.317 100.881,270.373 100.587 C 270.430 100.294,270.428 99.869,270.369 99.643 C 270.310 99.418,270.263 99.658,270.266 100.177 M173.392 135.860 C 173.684 135.916,174.162 135.916,174.454 135.860 C 174.746 135.804,174.507 135.757,173.923 135.757 C 173.339 135.757,173.100 135.804,173.392 135.860 M198.053 135.862 C 198.410 135.916,198.994 135.916,199.351 135.862 C 199.708 135.808,199.416 135.764,198.702 135.764 C 197.988 135.764,197.696 135.808,198.053 135.862 M207.847 135.860 C 208.139 135.916,208.617 135.916,208.909 135.860 C 209.201 135.804,208.962 135.757,208.378 135.757 C 207.794 135.757,207.555 135.804,207.847 135.860 M221.416 135.862 C 221.773 135.916,222.357 135.916,222.714 135.862 C 223.071 135.808,222.779 135.764,222.065 135.764 C 221.351 135.764,221.059 135.808,221.416 135.862 M231.095 135.863 C 231.453 135.917,231.984 135.915,232.275 135.859 C 232.565 135.803,232.271 135.759,231.622 135.761 C 230.973 135.762,230.736 135.808,231.095 135.863 M244.310 135.863 C 244.669 135.917,245.200 135.915,245.490 135.859 C 245.780 135.803,245.487 135.759,244.838 135.761 C 244.189 135.762,243.951 135.808,244.310 135.863 M253.986 135.863 C 254.344 135.917,254.875 135.915,255.165 135.859 C 255.456 135.803,255.162 135.759,254.513 135.761 C 253.864 135.762,253.627 135.808,253.986 135.863 M29.964 148.589 C 28.673 149.449,28.459 150.312,29.280 151.355 L 29.769 151.976 195.138 151.976 L 360.508 151.976 361.021 151.430 C 361.901 150.494,361.659 149.454,360.360 148.589 C 359.459 147.989,30.865 147.989,29.964 148.589 M360.590 149.381 C 361.326 150.117,361.147 150.854,360.101 151.395 C 359.089 151.919,31.236 151.919,30.223 151.395 C 29.177 150.854,28.998 150.117,29.735 149.381 C 30.481 148.634,359.843 148.634,360.590 149.381 M47.617 153.995 C 38.685 156.160,37.443 170.414,45.826 174.542 C 48.052 175.639,51.948 176.111,52.685 175.374 C 52.834 175.225,53.173 175.102,53.440 175.101 C 56.168 175.089,59.469 170.694,59.469 167.074 C 59.469 159.521,49.873 156.374,46.431 162.797 C 44.317 166.740,48.157 172.890,50.356 169.086 C 50.779 168.355,50.467 166.906,49.797 166.492 C 49.185 166.114,49.551 164.781,50.502 163.921 C 53.893 160.858,57.562 166.760,54.309 170.046 C 51.182 173.205,46.295 171.894,44.502 167.414 C 43.102 163.917,44.556 159.633,47.580 158.348 L 48.968 157.758 70.442 157.758 C 88.039 157.758,92.088 157.817,92.861 158.082 C 99.555 160.381,97.701 171.799,90.635 171.799 C 85.775 171.799,83.508 165.528,87.599 163.399 C 89.889 162.208,92.132 164.463,90.959 166.775 C 89.476 169.698,91.965 171.549,94.103 169.113 C 96.086 166.856,95.598 162.718,93.129 160.834 C 85.496 155.012,77.193 166.591,84.306 173.136 C 86.578 175.227,91.834 176.579,93.032 175.381 C 93.185 175.228,93.504 175.103,93.742 175.103 C 98.820 175.103,102.907 164.646,99.843 159.495 C 99.583 159.059,99.196 158.359,98.983 157.941 C 98.133 156.275,95.413 154.421,93.110 153.938 C 90.937 153.482,49.518 153.534,47.617 153.995 M111.283 154.128 C 107.630 155.169,102.891 159.674,102.891 162.107 C 102.891 162.324,102.762 162.631,102.604 162.788 C 101.652 163.740,102.166 168.665,103.509 171.460 C 107.755 180.303,121.534 177.956,121.534 168.390 C 121.534 165.798,119.841 162.124,118.646 162.124 C 118.503 162.124,118.218 161.979,118.013 161.803 C 113.545 157.948,105.611 164.017,108.300 169.233 C 110.189 172.895,113.859 172.008,112.166 168.298 C 111.136 166.042,111.986 164.720,114.468 164.720 C 118.828 164.720,118.734 171.376,114.353 172.829 C 112.456 173.459,109.850 173.085,108.795 172.031 C 105.151 168.392,105.029 163.934,108.475 160.315 C 111.234 157.416,115.219 156.882,120.000 158.769 C 120.954 159.146,121.208 159.318,124.257 161.652 C 128.757 165.098,129.921 166.002,130.029 166.136 C 130.094 166.215,131.050 167.012,132.153 167.906 C 133.257 168.800,135.365 170.546,136.839 171.786 C 138.312 173.027,139.905 174.337,140.379 174.699 C 140.852 175.060,141.876 175.930,142.655 176.630 C 143.434 177.331,144.463 178.204,144.942 178.569 C 147.528 180.541,152.906 184.910,153.156 185.242 C 153.221 185.328,154.920 186.756,156.932 188.415 C 158.944 190.074,161.104 191.873,161.732 192.412 C 164.040 194.392,168.285 197.040,170.147 197.661 C 175.084 199.308,177.643 199.426,182.419 198.231 C 184.763 197.645,189.377 194.765,190.702 193.060 C 191.014 192.659,191.616 191.933,192.042 191.446 C 192.987 190.364,194.690 186.920,194.690 186.091 C 194.690 185.267,195.351 185.302,195.524 186.136 C 195.960 188.231,198.412 192.090,200.333 193.701 C 201.058 194.310,201.705 194.867,201.770 194.939 C 202.132 195.339,203.709 196.360,204.838 196.925 C 205.552 197.283,206.318 197.668,206.541 197.782 C 209.536 199.309,216.289 199.299,220.059 197.761 C 223.062 196.536,227.049 193.922,229.853 191.340 C 230.177 191.041,230.814 190.517,231.268 190.176 C 231.723 189.834,232.388 189.281,232.746 188.945 C 233.105 188.610,233.901 187.952,234.516 187.483 C 235.131 187.014,236.007 186.294,236.462 185.882 C 236.918 185.470,237.767 184.746,238.350 184.274 C 238.933 183.802,239.676 183.185,240.000 182.903 C 240.916 182.107,241.309 181.783,244.960 178.814 C 246.840 177.285,249.386 175.184,250.619 174.144 C 251.853 173.105,253.281 171.935,253.795 171.546 C 254.308 171.156,255.240 170.365,255.866 169.788 C 256.493 169.211,257.375 168.488,257.827 168.181 C 258.279 167.874,259.048 167.261,259.535 166.820 C 260.023 166.379,261.535 165.171,262.895 164.137 C 264.256 163.102,265.475 162.172,265.605 162.070 C 269.146 159.282,269.452 159.093,271.622 158.357 C 279.287 155.757,286.101 161.433,283.894 168.579 C 281.984 174.763,272.802 174.564,272.802 168.339 C 272.802 165.889,273.868 164.720,276.102 164.720 C 278.415 164.720,279.177 166.105,278.108 168.365 C 276.958 170.795,279.087 172.766,280.901 170.952 C 284.787 167.066,281.767 160.826,276.001 160.826 C 269.202 160.826,266.255 169.502,271.388 174.402 C 274.620 177.485,280.202 177.892,283.580 175.290 C 288.106 171.805,289.543 165.719,287.023 160.708 C 286.558 159.782,284.611 157.168,284.388 157.168 C 284.308 157.168,283.979 156.926,283.655 156.630 C 278.790 152.173,269.597 153.042,263.837 158.503 C 263.381 158.935,262.918 159.289,262.806 159.290 C 262.634 159.292,260.653 160.787,258.998 162.164 C 258.738 162.380,257.676 163.233,256.637 164.060 C 253.129 166.851,251.921 167.844,250.973 168.712 C 250.454 169.188,249.786 169.745,249.489 169.950 C 249.192 170.155,248.449 170.788,247.837 171.356 C 247.226 171.924,246.239 172.761,245.644 173.215 C 244.336 174.214,242.820 175.455,240.601 177.345 C 239.686 178.124,238.195 179.368,237.286 180.109 C 234.949 182.016,230.189 186.003,228.778 187.236 C 224.135 191.291,221.418 193.064,217.622 194.514 C 215.848 195.192,210.128 195.258,208.968 194.614 C 208.578 194.398,208.134 194.221,207.980 194.220 C 207.183 194.216,203.556 191.580,202.011 189.883 C 195.585 182.819,200.065 170.411,209.051 170.386 C 217.234 170.364,221.240 179.770,214.790 183.860 C 210.500 186.580,205.057 181.728,208.028 177.833 C 209.198 176.298,208.871 174.883,207.252 174.476 C 204.734 173.844,202.229 179.861,203.745 182.900 C 203.957 183.324,204.130 183.815,204.130 183.991 C 204.130 184.762,207.284 187.491,208.726 187.966 C 220.019 191.691,226.948 176.066,217.080 169.124 C 208.967 163.417,198.466 167.405,195.487 177.326 C 195.198 178.289,194.690 178.397,194.690 177.496 C 194.690 174.615,190.547 169.387,186.848 167.601 C 184.352 166.396,179.959 165.881,178.123 166.577 C 177.825 166.691,177.156 166.916,176.637 167.079 C 172.349 168.424,168.496 173.610,168.496 178.037 C 168.496 181.671,171.487 186.782,174.109 187.626 C 174.591 187.781,175.120 188.015,175.285 188.146 C 175.689 188.467,180.619 188.469,181.293 188.149 C 181.588 188.009,182.159 187.771,182.562 187.620 C 186.859 186.011,188.509 179.072,185.432 175.553 C 183.137 172.929,180.741 174.947,182.419 178.091 C 185.264 183.422,177.588 187.310,173.907 182.402 C 168.907 175.735,177.341 167.504,185.393 171.190 C 187.655 172.226,190.914 176.394,190.914 178.251 C 190.914 178.581,191.012 178.912,191.132 178.986 C 191.515 179.222,191.679 181.998,191.391 183.364 C 191.240 184.077,191.061 184.979,190.993 185.369 C 190.765 186.670,188.313 190.214,186.785 191.453 C 185.262 192.687,182.807 194.217,182.347 194.220 C 182.192 194.221,181.746 194.399,181.357 194.616 C 180.459 195.116,173.887 195.221,173.409 194.742 C 173.251 194.584,172.961 194.454,172.766 194.454 C 171.255 194.454,167.077 191.820,162.483 187.972 C 160.929 186.670,159.398 185.392,159.082 185.133 C 158.765 184.873,158.010 184.236,157.403 183.717 C 154.476 181.211,152.364 179.441,150.206 177.684 C 148.909 176.627,147.378 175.375,146.804 174.902 C 146.231 174.428,145.281 173.670,144.693 173.215 C 144.104 172.761,143.087 171.899,142.431 171.300 C 141.775 170.702,140.124 169.291,138.761 168.165 C 137.398 167.040,135.752 165.665,135.103 165.110 C 134.454 164.555,133.339 163.656,132.625 163.112 C 131.912 162.568,129.763 160.925,127.850 159.459 C 120.959 154.179,116.331 152.690,111.283 154.128 M297.003 154.007 C 293.291 154.905,290.920 157.472,289.690 161.924 C 288.262 167.093,292.450 175.103,296.581 175.103 C 296.819 175.103,297.136 175.225,297.285 175.374 C 298.013 176.102,301.974 175.634,304.071 174.573 C 309.655 171.746,310.438 164.006,305.487 160.563 C 299.342 156.290,291.747 163.745,296.504 169.381 C 298.373 171.595,300.780 169.349,299.326 166.747 C 297.952 164.287,301.079 161.871,303.260 163.707 C 307.567 167.331,302.583 173.621,297.293 171.238 C 291.954 168.834,291.872 160.037,297.171 158.189 C 298.812 157.617,339.659 157.515,341.952 158.078 C 346.519 159.199,347.986 166.028,344.444 169.680 C 341.827 172.378,338.832 172.508,335.929 170.051 L 334.985 169.251 334.985 167.281 C 334.985 163.334,338.595 161.469,340.381 164.493 C 340.896 165.365,340.872 165.652,340.165 167.059 C 338.796 169.784,341.735 171.489,343.536 169.014 C 348.692 161.927,337.661 155.577,332.261 162.524 C 330.838 164.353,330.433 168.554,331.490 170.501 C 332.659 172.654,335.522 175.095,336.885 175.101 C 337.151 175.102,337.490 175.225,337.639 175.374 C 338.021 175.756,341.151 175.755,342.419 175.373 C 347.176 173.938,350.261 169.711,350.281 164.602 C 350.300 159.492,347.096 155.044,342.639 153.993 C 340.434 153.473,299.157 153.486,297.003 154.007 M93.106 154.594 C 101.702 156.183,103.039 169.699,95.030 174.058 C 91.495 175.983,87.489 175.414,84.430 172.552 C 79.202 167.662,83.450 158.543,90.224 160.118 C 94.372 161.082,96.198 165.729,93.646 168.824 C 92.116 170.682,90.222 168.988,91.563 166.962 C 93.366 164.240,89.195 161.281,86.615 163.452 C 83.134 166.381,85.326 171.771,90.176 172.211 C 97.678 172.891,100.559 161.448,93.805 157.796 L 92.861 157.286 70.560 157.286 L 48.260 157.286 47.316 157.797 C 40.508 161.482,43.418 172.894,50.990 172.207 C 55.457 171.802,57.800 166.750,54.885 163.808 C 52.302 161.202,47.903 163.723,49.543 166.869 C 50.710 169.107,49.244 170.713,47.566 169.036 C 42.876 164.346,50.265 157.253,55.894 161.042 C 64.232 166.654,54.942 178.857,46.015 174.020 C 38.103 169.733,39.287 156.249,47.722 154.587 C 49.291 154.278,91.431 154.284,93.106 154.594 M118.230 154.672 C 122.407 155.700,127.114 159.007,140.413 170.259 C 142.425 171.961,146.088 175.012,148.555 177.039 C 151.021 179.066,154.260 181.756,155.752 183.016 C 157.245 184.276,159.103 185.837,159.882 186.484 C 160.661 187.132,161.928 188.208,162.698 188.875 C 172.338 197.229,180.749 198.006,187.788 191.192 C 196.370 182.884,190.328 167.812,179.248 169.885 C 171.164 171.399,169.188 182.462,176.564 184.912 C 181.129 186.428,185.485 181.588,182.916 177.854 C 181.479 175.765,182.951 173.803,184.740 175.423 C 187.585 177.997,186.747 184.216,183.245 186.516 C 173.435 192.957,163.963 178.813,172.472 170.429 C 180.123 162.890,193.397 168.227,194.596 179.323 C 194.789 181.115,195.039 180.870,195.886 178.053 C 198.663 168.821,207.006 164.597,214.940 168.406 C 223.308 172.425,223.334 184.416,214.981 187.591 C 207.718 190.351,200.715 182.085,205.238 176.092 C 206.908 173.879,209.185 175.101,207.702 177.413 C 204.112 183.013,211.796 188.214,216.353 183.269 C 221.124 178.093,217.159 170.242,209.627 169.951 C 205.035 169.773,201.869 171.841,199.570 176.519 L 198.584 178.525 198.584 181.593 C 198.584 185.294,199.428 187.898,201.201 189.672 C 201.384 189.855,201.534 190.096,201.534 190.208 C 201.534 190.815,206.158 194.113,207.906 194.752 C 214.287 197.087,220.086 195.383,227.514 188.990 C 230.065 186.795,232.346 184.866,233.063 184.298 C 234.212 183.387,245.702 173.805,252.256 168.292 C 262.657 159.543,268.008 155.826,271.656 154.815 C 282.230 151.885,291.018 161.663,286.358 171.175 C 283.643 176.717,276.022 178.163,271.664 173.964 C 265.484 168.007,271.828 158.556,279.519 162.263 C 282.338 163.622,282.799 168.728,280.291 170.810 C 279.077 171.817,277.883 170.197,278.660 168.598 C 280.292 165.239,276.600 162.473,273.720 164.896 C 270.128 167.918,272.825 173.542,277.876 173.562 C 284.518 173.588,287.299 165.009,282.274 159.998 C 278.078 155.814,272.317 156.122,266.300 160.854 C 265.164 161.747,263.481 163.050,262.560 163.749 C 260.738 165.131,256.813 168.321,251.947 172.373 C 248.218 175.479,244.646 178.481,244.484 178.644 C 244.419 178.710,243.782 179.203,243.068 179.739 C 242.354 180.276,241.557 180.912,241.297 181.154 C 241.037 181.395,240.048 182.230,239.100 183.009 C 238.153 183.788,236.808 184.903,236.112 185.487 C 235.417 186.071,233.856 187.364,232.645 188.361 C 231.434 189.358,229.540 190.937,228.437 191.871 C 225.352 194.482,219.802 197.758,218.463 197.758 C 218.247 197.758,217.585 197.923,216.992 198.124 C 213.200 199.411,205.792 197.704,202.293 194.736 C 198.711 191.698,196.854 188.982,195.969 185.487 C 195.755 184.643,195.412 183.634,195.206 183.245 L 194.830 182.537 194.548 184.307 C 193.273 192.282,185.549 198.511,176.954 198.495 C 174.510 198.490,174.174 198.428,170.855 197.359 C 167.841 196.388,164.168 193.892,157.994 188.619 C 153.769 185.010,148.618 180.772,145.725 178.525 C 145.223 178.136,144.699 177.706,144.560 177.571 C 144.271 177.291,136.047 170.398,134.716 169.322 C 120.186 157.565,119.947 157.415,115.398 157.227 C 107.175 156.888,102.319 165.900,107.695 171.524 C 112.445 176.493,121.057 171.501,117.543 165.815 C 115.376 162.310,109.772 164.512,111.622 168.142 C 112.680 170.215,111.315 171.932,109.742 170.508 C 105.685 166.837,110.290 160.110,115.881 161.541 C 122.523 163.241,122.891 172.206,116.460 175.658 C 114.853 176.521,109.535 176.414,108.083 175.489 C 96.659 168.220,104.866 151.384,118.230 154.672 M344.362 155.231 C 352.718 159.346,350.876 173.057,341.708 174.986 C 334.029 176.601,328.254 167.789,333.225 162.042 C 336.198 158.605,342.415 159.610,343.802 163.752 C 344.830 166.823,342.546 170.932,340.727 169.285 C 340.166 168.777,340.179 167.989,340.766 167.026 C 342.422 164.311,338.900 161.416,336.140 163.224 C 331.989 165.944,334.632 172.121,339.956 172.145 C 347.319 172.178,349.634 161.339,343.021 157.798 L 342.065 157.286 320.000 157.286 C 295.122 157.286,296.590 157.180,294.856 159.099 C 290.682 163.720,293.215 171.684,299.026 172.211 C 304.199 172.680,307.354 167.546,304.137 163.891 C 301.670 161.088,296.852 163.901,298.863 166.970 C 300.213 169.031,298.414 170.625,296.741 168.851 C 294.629 166.611,295.504 162.279,298.372 160.779 C 304.304 157.676,310.561 164.193,307.500 170.287 C 304.085 177.086,294.851 176.713,291.066 169.622 L 290.149 167.906 290.148 164.720 C 290.147 161.424,290.161 161.362,291.404 158.845 C 291.921 157.798,293.741 155.922,294.765 155.380 C 296.642 154.387,297.169 154.367,320.477 154.412 L 342.783 154.454 344.362 155.231 " stroke="none" fill="#9c9c9c" fill-rule="evenodd"></path></g></svg>